<svg version="1.2" xmlns="http://www.w3.org/2000/svg" viewBox="0 0 65 65" width="99" height="99">
	<title>codefreshio-icon-svg</title>
	<style>
		.s0 { fill: #2eb99b } 
		.s1 { fill: #4e555d } 
	</style>
	<path id="Layer" fill-rule="evenodd" class="s0" d="m53.7 19.1c-3.5 3.5-5.7 11.8-5.7 11.8-0.8 4.4-3.3 8.8-9.9 11.4 1.9-11.1-4.6-17.7-4.6-17.7 12.6-7.1 13.3-4.4 20.2-5.5zm-18.9 25.7q0 0 0 0 0 0 0 0zm0 0c0.5 0.8 1.8 2.2 5.5 2.9l-0.5 2.3c-4.3-0.9-6.1-2.6-6.9-3.9-0.9 0-13-0.7-16.3-10.1-2.7-9.1-2.8-13.6-5.2-18.4 0 0 12.6 1.3 21 10.6 5 7 2.5 15.7 2.4 16.6zm-11.9-11.7c0.8 2.4 3 7.5 8.2 9.1-5.5-17.9-15.1-20.4-15.1-20.4 3.2 2.8 5.9 8.1 6.9 11.3z"/>
	<path id="Layer" class="s1" d="m12.7 14.9c-5.3 2.5-7.5 8.7-7.5 18 0 9.3 2.2 15.5 7.5 18.1l-0.6 2.4c-8.2-2.9-11.9-9.3-11.9-20.4 0-11.1 3.7-17.6 11.9-20.4zm39.6-2.3c8.2 2.8 11.9 9.2 11.9 20.4 0 11.2-3.7 17.5-11.9 20.4l-0.7-2.3c5.4-2.7 7.5-8.9 7.5-18.1 0-9.4-2.1-15.6-7.5-18.1z"/>
</svg>