<svg version="1.2" xmlns="http://www.w3.org/2000/svg" viewBox="0 0 600 600" width="99" height="99">
	<title>Coursera-Logo_600x600-svg</title>
	<style>
		.s0 { fill: #ffffff } 
		.s1 { fill: #0056d2 } 
	</style>
	<path id="Layer" class="s0" d="m307 307h-14v-14h14z"/>
	<path id="Layer" class="s0" d="m600 600h-600v-600h600z"/>
	<path id="Layer" class="s1" d="m600 600h-600v-600h600z"/>
	<g id="Layer">
		<path id="Layer" fill-rule="evenodd" class="s0" d="m117.9 300.4c0-19.3 15.9-34.8 35.9-34.8 20 0 36 15.5 36 34.8 0 19.2-16 35-36 35-20 0-35.9-15.9-35.9-35zm54.7 0c0-9.5-8.4-18.1-18.8-18.1-10.3 0-18.6 8.6-18.6 18.1 0 9.8 8.4 18.3 18.6 18.3 10.4 0 18.8-8.5 18.8-18.3z"/>
		<path id="Layer" fill-rule="evenodd" class="s0" d="m478.1 301c0-21.2 17.4-35.4 33.1-35.4 10.7 0 16.9 3.2 21.1 9.4l1.6-8.2h16.1v67.3h-16.1l-2-6.9c-4.7 5-10.6 8.2-20.6 8.2-15.7 0-33.2-13.5-33.2-34.4zm54.8-0.2c0-10.2-8.4-18.5-18.9-18.5-10.3 0-18.7 8.4-18.7 18.8 0 9.3 8.5 17.7 18.7 17.7 10.6-0.1 18.9-8.5 18.9-18z"/>
		<path id="Layer" class="s0" d="m478.2 265.6l-3.2 15.9c-0.5-0.1-1-0.1-1.7-0.1-9.2 0-14.5 5.6-14.5 16.3v35.8h-17.1v-66.2h17.1v7.7c4.1-6.3 10.5-9.3 19.4-9.4z"/>
		<path id="Layer" class="s0" d="m303.9 265.6l-3.2 15.9c-0.5-0.1-1.1-0.1-1.7-0.1-9.5 0-14.8 5.6-14.8 16.3l0.1 35.8h-17.6l-0.2-66.2h17.7v7.7c4-6.3 10.6-9.3 19.7-9.4z"/>
		<path id="Layer" class="s0" d="m196.7 307.8v-41.3h17.2v39.1c0 8.7 4.7 13.7 13 13.7 9.2 0 14.6-5.7 14.6-16.6v-36.2h17.2v67.3h-17.2v-7.8c-4.1 6.4-10.7 9.4-19.8 9.4-15.5 0.2-25-11.1-25-27.6z"/>
		<path id="Layer" fill-rule="evenodd" class="s0" d="m365.9 300.4c0-18.9 13.7-35 35-34.8 19.9 0 33.9 15.9 33.9 34.5 0 1.9-0.1 3.9-0.4 5.6l-51.4-0.1c2 8.1 8.7 13.8 18.7 13.9 6.2 0 12.7-2.3 16.7-7.3l11.9 9.6c-6.1 8.6-17 13.6-28.4 13.6-20.3-0.2-36-15.4-36-35zm51.5-6.9c-1-6.8-8.2-12.1-16.5-12.1-8.1 0-14.7 4.8-17.2 11.9z"/>
		<path id="Layer" class="s0" d="m303.9 319.6l15.6-8.1c2.5 5.5 7.7 8.7 14.9 8.7 6.7 0 9.3-2.1 9.3-5 0-10.7-37-4.2-37-28.9 0-13.6 12.1-20.7 26.9-20.7 11.3 0 21.3 4.9 26.8 14.1l-15.4 8.1c-2.3-4.5-6.5-7-12-7-5.4 0-7.9 1.8-7.9 4.9 0 10.4 36.9 3.8 36.9 28.8 0 13-10.7 20.9-28 20.9-14.7-0.1-25-4.9-30.1-15.8z"/>
		<path id="Layer" class="s0" d="m50 300.1c0-19.2 15.8-34.5 35.6-34.5 12.7 0 23.7 6.3 30.1 15.7l-14.9 8.5c-3.4-4.7-8.9-7.8-15.2-7.8-10.3 0-18.5 8.4-18.5 17.9 0 9.6 8.4 18 18.5 18 6.6 0 12.4-3.4 15.6-8.5l14.7 8.7c-6.2 9.8-17.5 16.4-30.3 16.4-19.8 0.1-35.6-15.7-35.6-34.4z"/>
	</g>
</svg>