<svg version="1.2" xmlns="http://www.w3.org/2000/svg" viewBox="0 0 173 96" width="99" height="99">
	<title>ow-logo-secondary-svg</title>
	<style>
		.s0 { fill: #f33784 } 
		.s1 { fill: #ffffff } 
	</style>
	<g id="Layer">
		<path id="Layer" class="s0" d="m171 11.7l-37.2 61.3c-0.9 1.6-2.4 2.8-4.2 3.4h-0.1l-0.6 0.2h-0.2l-0.5 0.1h-2.1l-0.5-0.1h-0.2l-0.6-0.2h-0.1c-1.8-0.6-3.3-1.8-4.2-3.4l-11.1-19.4-11.2 19.4c-1.2 2-3.3 3.4-5.7 3.7h-2c-2.4-0.2-4.5-1.6-5.7-3.7l-26.5-46.1c-1.5-2.7-3.6-5-6.1-6.8-10.2-7.5-24.6-5.3-32.1 4.9-7.5 10.2-5.4 24.7 4.8 32.2 10.2 7.5 24.6 5.3 32.1-4.9 2.3-3.2 6.6-4.1 10-2.1 3.7 2.1 4.9 6.8 2.8 10.4-9.8 14-27.8 19.7-44 14-16.2-5.7-26.6-21.5-25.4-38.6 1.2-17.1 13.6-31.3 30.4-34.8 16.8-3.4 33.8 4.7 41.6 20l19 32.9 11-19c0.9-2.1 2.7-3.5 4.9-4.1l0.7-0.1h2.6l0.7 0.1c2.1 0.6 3.9 2.1 4.9 4.1l10.9 18.9 30.7-49.9c2.1-3.7 6.7-4.9 10.4-2.8 3.6 2.1 4.9 6.8 2.8 10.4z"/>
		<path id="Layer" fill-rule="evenodd" class="s1" d="m183.1 39.4c-0.1-5.8 0.3-11.7 1.2-17.4 0.5-3.9 1.8-7.7 3.6-11.2 1.4-2.6 3.5-4.7 6.2-6 5.5-2.3 11.6-2.3 17.1-0.1 2.5 1.2 4.4 3.2 5.6 5.7 1.7 3.5 2.7 7.2 3.1 11.1 0.7 5.8 1 11.7 1 17.5 0.1 6-0.3 12-1.1 18-0.5 4-1.7 8-3.5 11.6-1.3 2.6-3.4 4.8-6 6.2-2.7 1.3-5.7 1.9-8.7 1.8-2.9 0.1-5.8-0.4-8.6-1.5-2.5-1.2-4.5-3.2-5.7-5.7-1.7-3.6-2.8-7.4-3.2-11.4-0.8-6.2-1.1-12.4-1-18.6zm13.1 2.5c0 4 0.1 7.5 0.2 10.3 0.1 2.4 0.4 4.7 0.8 7.1 0.2 1.5 0.9 2.9 1.8 4 0.8 0.9 1.9 1.4 3.1 1.3 1.2 0 2.3-0.5 3.1-1.4 1-1.3 1.6-2.8 1.9-4.5 0.5-2.6 0.8-5.2 0.9-7.9 0.2-3.2 0.3-7.1 0.3-11.6 0-4.5 0-8.3-0.2-11.4 0-2.6-0.3-5.1-0.8-7.6-0.2-1.6-0.9-3-1.8-4.3-0.8-0.9-2-1.4-3.3-1.3-1.1 0-2.2 0.5-2.9 1.4-1 1.4-1.6 3-1.9 4.6-0.6 2.8-0.9 5.6-1 8.4-0.1 3.8-0.1 8-0.2 12.9zm37.1-17.4c2.7-0.7 5.4-1.1 8.2-1.1 2.3 0 4.5 0.3 6.7 0.9 2 0.6 3.8 1.7 5.2 3.2 1.6 1.9 2.7 4 3.4 6.4 0.9 3.4 1.3 6.8 1.2 10.3 0.1 5.6-0.3 11.2-1.1 16.7-0.5 3.4-1.4 6.7-2.9 9.8-0.9 2-2.4 3.6-4.2 4.7-1.6 0.8-3.4 1.2-5.3 1.2-2.4 0.2-4.8-0.5-6.8-1.9v20.2c-0.9 0.4-1.9 0.6-2.9 0.7-1 0.1-2 0.2-3 0.2-1.5 0.1-3-0.2-4.2-1-0.9-0.7-1.3-2-1.3-3.9v-63.5c2.2-1.3 4.5-2.3 7-2.9zm4.4 40.2c0.6 1.1 1.7 1.8 2.9 1.8 0.6 0 1.1-0.2 1.6-0.6 0.7-0.8 1.2-1.8 1.4-2.9 0.5-2.2 0.9-4.4 1-6.6 0.3-2.9 0.4-6.7 0.4-11.6q0-3-0.3-6c-0.1-1.2-0.4-2.4-0.8-3.5-0.2-0.7-0.7-1.3-1.3-1.7-0.6-0.3-1.2-0.5-1.9-0.5-1.1 0-2.2 0.5-3.1 1.2zm42.8-41.3c3.6-0.2 7.2 1.3 9.6 3.9 2.3 2.6 3.5 6.9 3.5 12.8 0 2.5-0.1 5-0.3 7.6-0.2 2.3-0.5 4.7-1.1 6.9-1.4 0.3-2.8 0.5-4.2 0.7-1.5 0.2-3.1 0.3-4.7 0.5-1.6 0.1-3.2 0.2-4.7 0.3-1.5 0.1-2.9 0.1-4.2 0.1-0.1 2.5 0.5 4.9 1.6 7.1 0.9 1.5 2.6 2.2 5.1 2.2 1.9 0 3.7-0.3 5.5-0.8q2.9-0.8 5.4-2.1c0.4 1.2 0.6 2.5 0.7 3.7 0.1 1.5 0.2 2.8 0.2 3.9 0 1-0.4 2-1.1 2.7-0.9 0.9-2 1.6-3.1 2-1.5 0.6-3.1 1-4.7 1.2-1.9 0.3-3.8 0.4-5.6 0.4-2.2 0-4.3-0.3-6.4-1-2-0.7-3.8-2-5-3.7-1.6-2.2-2.7-4.8-3.3-7.4-0.9-3.9-1.3-8-1.2-12-0.1-5.1 0.4-10.1 1.5-15.1 0.7-3.2 2-6.2 3.9-8.8 1.5-1.9 3.5-3.4 5.7-4.2 2.3-0.6 4.6-1 6.9-0.9zm-1.5 9.9c-1.6 0-2.7 1.1-3.4 3.4-0.8 3.4-1.2 7-1.2 10.5 1.4 0 2.9-0.1 4.3-0.2 1.1-0.1 2.2-0.3 3.3-0.7 0.2-0.8 0.4-1.7 0.4-2.5 0.1-0.9 0.1-1.9 0.1-2.8 0-1.3 0-2.6-0.2-3.9-0.1-0.8-0.3-1.6-0.6-2.3-0.2-0.5-0.6-0.9-1.1-1.1-0.6-0.3-1.1-0.4-1.6-0.4zm20-6.5c1-0.5 2.1-0.9 3.1-1.2 1.4-0.4 2.7-0.8 4.1-1.1 1.5-0.3 3-0.6 4.5-0.8q2.1-0.3 4.2-0.3c2.2 0 4.5 0.2 6.7 0.6 1.7 0.3 3.2 1.1 4.6 2.2 1.2 1.1 2.1 2.5 2.6 4.1 0.6 2.1 0.9 4.2 0.9 6.4v37c0 0.4 0 0.8-0.2 1.2-0.4 0.4-0.9 0.6-1.4 0.6-0.8 0.1-2 0.2-3.6 0.2-1.6 0-3.8 0-6.7 0v-35.6c0.1-1.8-0.1-3.7-0.6-5.5-0.5-1.1-1.6-1.7-2.8-1.5-1.4 0-2.8 0.4-3.9 1.2v39.2c0 0.4 0 0.8-0.2 1.2-0.3 0.4-0.8 0.6-1.3 0.6-1.1 0.1-2.3 0.2-3.4 0.2h-6.6zm34.4-19.9c-0.2-0.8-0.2-1.6 0.1-2.4 0.7-0.5 1.6-0.8 2.5-0.6h9.6l5 33.4c0.7 4.9 1.3 9.7 1.8 14.6 0.5 4.6 0.8 8.6 1 12h0.8q0.2-7.1 0.9-13.8c0.4-4.3 1-8.6 1.7-12.9l4.4-27.3c0.1-0.8 0.3-1.6 0.7-2.4 0.5-0.6 1.3-0.8 2.1-0.7h8.1l5.3 30.3c0.9 5.1 1.5 10 1.9 14.6 0.4 4.6 0.8 8.6 1 12h0.8c0.1-1.8 0.2-3.9 0.4-6.1 0.2-2.2 0.4-4.5 0.6-6.8 0.2-2.3 0.4-4.6 0.7-7 0.2-2.3 0.5-4.6 0.9-6.8l4.2-30c0-0.8 0.3-1.6 0.7-2.4 0.5-0.6 1.3-0.8 2.1-0.7h9.9l-12.2 71.8c-1.2 0.1-2.1 0.2-2.9 0.3l-2.2 0.2c-0.7 0.1-1.4 0.1-2.2 0.1h-2.7c-1.6 0.1-3.1-0.5-4.1-1.7-1.1-1.4-1.8-3-2-4.8l-2.3-11.1c-0.3-1.8-0.7-3.9-1-6-0.3-2.2-0.7-4.5-0.9-6.8-0.3-2.3-0.5-4.6-0.8-7l-0.7-6.6-0.6 6.7c-0.2 2.3-0.5 4.6-0.8 7-0.3 2.3-0.6 4.5-0.9 6.8q-0.5 3-0.9 6l-2.8 16.9c-1 0.1-1.9 0.2-2.7 0.2-0.8 0-1.6 0.1-2.4 0.2-0.8 0.1-1.7 0.1-2.6 0.1h-3.2c-1.5 0.1-2.8-0.6-3.7-1.8-0.9-1.4-1.6-2.9-1.8-4.5-0.4-2.1-0.9-4.5-1.4-7.5-0.5-2.9-1.1-6.1-1.7-9.4-0.6-3.3-1.2-6.8-1.8-10.3-0.6-3.6-1.2-7.1-1.7-10.5-1.4-8.1-2.7-16.5-4.2-25.3zm83.2 16.5c3.6-0.2 7.2 1.3 9.6 3.9 2.3 2.6 3.5 6.9 3.5 12.8 0 2.5-0.1 5-0.3 7.6-0.2 2.3-0.5 4.7-1.1 6.9-1.4 0.3-2.8 0.5-4.2 0.7-1.5 0.2-3.1 0.3-4.7 0.5-1.6 0.1-3.2 0.2-4.7 0.3-1.5 0.1-2.9 0.1-4.2 0.1-0.1 2.5 0.5 4.9 1.6 7.1 0.9 1.5 2.6 2.2 5.1 2.2 1.9 0 3.7-0.3 5.5-0.8q2.9-0.8 5.4-2.1c0.4 1.2 0.6 2.5 0.7 3.7 0.1 1.5 0.2 2.8 0.2 3.9 0 1-0.4 2-1.1 2.7-0.9 0.9-2 1.6-3.1 2-1.5 0.6-3.1 1-4.7 1.2-1.9 0.3-3.8 0.4-5.6 0.4-2.2 0-4.3-0.3-6.4-1-2-0.7-3.8-2-5-3.7-1.6-2.2-2.7-4.8-3.3-7.4-0.9-3.9-1.3-8-1.2-12-0.1-5.1 0.4-10.1 1.5-15.1 0.7-3.2 2-6.2 3.9-8.8 1.5-1.9 3.5-3.4 5.7-4.2 2.3-0.6 4.6-1 6.9-0.9zm-1.5 9.9c-1.6 0-2.7 1.1-3.4 3.4-0.8 3.4-1.2 7-1.2 10.5 1.4 0 2.9-0.1 4.3-0.2 1.1-0.1 2.2-0.3 3.3-0.7 0.2-0.8 0.4-1.7 0.4-2.5 0.1-1.1 0.1-2 0.1-2.8 0-1.3 0-2.6-0.2-3.9-0.1-0.8-0.3-1.6-0.6-2.3-0.2-0.5-0.6-0.9-1.1-1.1-0.5-0.3-1.1-0.4-1.6-0.4zm20.3-27.9c0-1 0.1-2 0.5-3 0.3-0.7 1-1.2 1.7-1.5 1.1-0.4 2.3-0.5 3.5-0.6 1.5-0.1 3.4-0.1 5.8-0.1v26c1.1-1 2.4-1.7 3.8-2.2 1.6-0.5 3.2-0.8 4.9-0.8 1.8-0.1 3.6 0.3 5.3 1.1 1.5 0.8 2.8 2 3.6 3.5 1.1 2 1.8 4.2 2.1 6.5 0.5 3.2 0.7 6.5 0.7 9.7 0.2 5.8-0.4 11.7-1.8 17.4-0.9 3.6-2.5 6.9-4.7 9.8-1.6 2.1-3.9 3.6-6.4 4.4-2.2 0.6-4.5 1-6.8 1-2.4 0-4.8-0.2-7.2-0.8-1.7-0.4-3.4-1.2-4.8-2.3zm11.4 60.4c0.6 0.6 1.4 0.9 2.2 0.8 0.6-0.1 1.2-0.3 1.6-0.8 0.8-0.8 1.3-1.9 1.6-3 0.6-2 1.1-4.1 1.3-6.2 0.4-3.5 0.6-7 0.5-10.5 0.2-3.3-0.2-6.6-1-9.8-0.6-1.8-1.6-2.8-2.9-2.8-1.3 0-2.5 0.5-3.4 1.4zm37.1 7.8c0 0.4 0 0.8-0.2 1.2-0.3 0.4-0.8 0.6-1.3 0.6-1.2 0.1-2.3 0.2-3.5 0.2h-6.7v-46.2c0-1 0.1-2 0.5-2.9q0.6-1 1.8-1.5c1.1-0.4 2.3-0.5 3.5-0.6 1.5-0.1 3.5-0.1 5.9-0.1zm-11.1-64.2c-0.1-2 0.4-4 1.5-5.8 1.1-1.5 2.9-2.4 4.8-2.2 2.1 0 3.6 0.5 4.3 1.6 0.9 1.8 1.3 3.8 1.1 5.9 0.1 2.3-0.4 4.5-1.6 6.5-1 1.5-2.7 2.3-4.5 2.3-1.5 0.1-3-0.6-4-1.7-1.1-1.2-1.6-3.4-1.6-6.6zm21 16.2c1.4-0.4 2.7-0.8 4.1-1.1 1.5-0.3 3-0.6 4.5-0.8q2.1-0.3 4.2-0.3c2.2 0 4.5 0.2 6.7 0.6 1.7 0.3 3.2 1.1 4.6 2.2 1.2 1.1 2.1 2.5 2.6 4.1 0.6 2.1 0.9 4.2 0.9 6.4v37c0 0.4 0 0.8-0.2 1.2-0.4 0.4-0.9 0.6-1.4 0.6-0.8 0.1-2 0.2-3.6 0.2-1.6 0-3.8 0-6.7 0v-35.6c0.1-1.8-0.1-3.7-0.6-5.5-0.5-1-1.6-1.7-2.8-1.5-1.4 0-2.8 0.4-3.9 1.2v39.2c0 0.4 0 0.8-0.2 1.2-0.3 0.4-0.8 0.6-1.3 0.6-1.1 0.1-2.3 0.2-3.4 0.2h-6.6v-48.7c1-0.5 2.1-0.9 3.1-1.2zm32.8 4.3c0-0.7 0.1-1.4 0.4-2 0.2-0.6 0.6-1.2 1.1-1.6 1.6-0.9 3.3-1.5 5.1-1.9 3.3-0.8 6.7-1.2 10.2-1.1 4.7 0 8 0.9 10 2.8 1.9 1.9 2.9 5.1 2.9 9.7v22.7c0 2.9-0.1 5.6-0.2 8.1-0.1 2.5-0.2 4.7-0.3 6.7-2 1.1-4.2 1.9-6.4 2.4-2.7 0.6-5.5 0.9-8.3 0.9-1.8 0-3.7-0.2-5.5-0.5-1.7-0.3-3.3-1.1-4.6-2.1-1.5-1.3-2.6-3-3.2-4.8-0.9-2.7-1.3-5.6-1.2-8.5-0.1-2.9 0.3-5.8 1-8.6 0.5-1.9 1.4-3.7 2.6-5.2 1-1.2 2.3-2 3.8-2.5 1.4-0.4 2.9-0.7 4.4-0.7 1 0 2.1 0.1 3.1 0.3 1.2 0.2 2.4 0.6 3.4 1.2v-7.1c0.1-1.1-0.2-2.1-1-2.9-1-0.7-2.2-1-3.3-0.9q-3.1 0-6.3 0.6c-2 0.3-4 0.9-6 1.5q-0.9-1.6-1.2-3.6c-0.4-0.8-0.5-1.8-0.5-2.9zm18.1 23.1c-0.4-0.4-0.8-0.6-1.3-0.7-0.5-0.1-0.9-0.2-1.4-0.2-1.1 0-2.1 0.6-2.6 1.6q-0.9 1.7-0.9 6.6c-0.1 1.8 0.1 3.6 0.7 5.3 0.4 1.1 1.5 1.7 2.6 1.6q0.8 0 1.5-0.3c0.5-0.1 0.9-0.4 1.3-0.8 0.1-0.8 0.1-1.6 0.2-2.4zm24-28.2c2.5-0.9 5.2-1.4 7.9-1.4 2.8 0 4.6 0.4 5.5 1.2 1 1.1 1.5 2.5 1.3 3.9 0 1-0.1 1.9-0.2 2.9-0.2 1.3-0.5 2.6-0.9 3.8-0.7-0.3-1.3-0.5-2.1-0.7-0.6-0.1-1.2-0.2-1.7-0.2-0.7 0-1.5 0.2-2.2 0.4-0.8 0.3-1.6 0.7-2.2 1.2l-0.1 37.6c0 0.4 0 0.8-0.2 1.2-0.3 0.4-0.8 0.6-1.3 0.6-1.1 0.1-2.2 0.1-3.3 0.1h-6.8v-47.4c2-1.3 4.1-2.4 6.3-3.2zm34.6-1.4c2.3-0.1 4.6 0.2 6.8 0.7 1.4 0.3 2.6 0.9 3.8 1.6 0.8 0.5 1.3 1.3 1.6 2.1 0.2 0.7 0.3 1.4 0.4 2.1 0 1-0.2 2-0.6 2.9-0.4 1-0.9 1.9-1.6 2.6-1.3-0.7-2.8-1.3-4.3-1.6-1.5-0.3-3-0.5-4.6-0.5-3.2 0-4.8 1-4.8 3.1 0 0.7 0.2 1.3 0.5 1.9 0.6 1.2 1.5 2.3 2.5 3.2l7.6 7.7c0.9 1 1.8 2.1 2.5 3.3 0.6 0.9 1.1 1.9 1.6 3 0.4 1 0.7 2 0.8 3 0.1 1.2 0.2 2.4 0.2 3.5 0.2 4.1-1.5 8.2-4.7 10.9q-4.6 3.9-12.6 3.9c-1.6 0-3.1-0.1-4.7-0.3-1.3-0.2-2.6-0.5-3.8-1-1-0.4-1.9-1-2.6-1.8-0.7-0.8-1-1.9-1-2.9 0-1 0.2-2 0.4-2.9 0.3-1.2 0.8-2.4 1.4-3.5 1.4 0.7 2.9 1.3 4.5 1.7q2.2 0.6 4.5 0.6c1.4 0.1 2.8-0.3 3.9-1.2 0.9-0.8 1.4-1.9 1.3-3.1 0-0.9-0.1-1.7-0.4-2.6-0.4-1.2-1-2.3-1.9-3.2l-8.9-9.4c-1.6-1.7-2.9-3.6-3.8-5.7-0.7-1.6-1.1-3.4-1.1-5.1 0-1.7 0.3-3.4 0.9-5 0.6-1.6 1.5-3 2.8-4 1.5-1.2 3.3-2.1 5.2-2.6 2.8-1.1 5.5-1.5 8.2-1.4z"/>
	</g>
</svg>