<svg version="1.2" xmlns="http://www.w3.org/2000/svg" viewBox="0 0 193 146" width="99" height="99">
	<title>Red_Hat_logo-svg</title>
	<style>
		.s0 { fill: #ee0000 } 
		.s1 { fill: #000000 } 
	</style>
	<path id="path8" class="s0" d="m43.1 44.5q0-0.2 0-0.5 0-0.2 0-0.5 0.1-0.2 0.1-0.4 0-0.3 0.1-0.5c1.1-3.5 9.5-27.2 9.5-27.2 3-8.4 6.9-12.5 12.9-12.5 6.3 0 11.2 5.6 17.9 5.6 6.9 0 8.6-7.5 14.5-7.5 6.3 0 27.4 8.1 37.1 13.1 12.5 6.2 14 9.5 15.7 16.6l7.4 32.4q0.1 0.4 0.1 0.8 0.1 0.5 0.1 0.9 0.1 0.4 0.1 0.8 0 0.5 0 0.9c0 14.9-18.1 17.5-30.6 17.5-48.7-0.1-85-30.3-84.9-39.5zm148.2 63.8c0 16.2-11.4 36.7-56.7 36.7-59 0-133.6-38.8-133.6-70.3 0-19.2 21.8-22.2 38.6-23q-0.4 0.9-0.7 1.8-0.2 0.9-0.4 1.8-0.2 0.9-0.3 1.8-0.1 1-0.1 1.9c0 18.1 40.9 45.5 87.7 45.5 20.7 0 36.4-7.8 36.4-21.8 0-1 0-1.9-1.7-10.1 19.8 8.6 30.8 23 30.8 35.7z"/>
	<path id="path10" class="s1" d="m160.5 72.6c1.7 8.2 1.7 9.1 1.7 10.1 0 14-15.7 21.8-36.4 21.8-46.8 0-87.7-27.4-87.7-45.5q0-0.9 0.1-1.9 0.1-0.9 0.3-1.8 0.2-0.9 0.4-1.8 0.3-0.9 0.7-1.8l3.7-9.1q-0.1 0.2-0.1 0.5 0 0.2-0.1 0.4 0 0.3 0 0.5 0 0.3 0 0.5c0 9.2 36.3 39.4 84.9 39.4 12.5 0 30.6-2.6 30.6-17.5q0-0.4 0-0.9 0-0.4-0.1-0.8 0-0.4-0.1-0.9 0-0.4-0.1-0.8z"/>
</svg>