<svg version="1.2" xmlns="http://www.w3.org/2000/svg" viewBox="0 0 193 193" width="99" height="99">
	<title>vmware-svg</title>
	<style>
		.s0 { fill: #ffffff } 
		.s1 { fill: #5c4835 } 
		.s2 { fill: #698dba } 
	</style>
	<g id="Layer">
		<path id="Layer" fill-rule="evenodd" class="s0" d="m0 0h192.8v192.8h-192.8z"/>
		<path id="Layer" fill-rule="evenodd" class="s1" d="m69.5 106.6c-0.6 1.4-1.1 2.2-2.9 2.2-1.9 0-2.4-0.8-2.9-2.2l-5.4-13.9c-0.3-0.6-0.4-1.1-0.4-1.5 0-1.8 1.4-2.7 2.8-2.7 1.5 0 2.2 1.1 2.4 1.9l3.4 10.6h0.1l3.4-10.6c0.3-0.8 0.9-1.9 2.4-1.9h5.3c1.3 0 2.2 0.8 2.4 2.1 1.3-1.4 3-2.2 5-2.2 2.3 0 4.2 0.9 5.6 2.7 1.5-1.7 3.8-2.7 5.6-2.7 4.4 0 7.4 2.5 7.4 7.2v10.3c0 1.7-1.1 2.9-2.7 2.9-1.6 0-2.7-1.2-2.7-2.9v-9.4c0-2.1-1.2-3.7-3.1-3.7-2 0-3.2 1.6-3.2 3.7v9.4c0 1.7-1.1 2.9-2.7 2.9-1.5 0-2.6-1.2-2.6-2.9v-9.4c0-2.1-1.2-3.7-3.2-3.7-2.2 0-3.2 1.6-3.2 3.7v9.4c0 1.7-1.1 2.9-2.6 2.9-1.6 0-2.7-1.2-2.7-2.9v-13.4zm36-15.3c-0.1-0.5-0.2-1-0.2-1.3 0-0.6 0.4-1.5 1.5-1.5 0.7 0 1.4 0.3 1.9 1.7l4.2 13.6 4.2-13.1c0.4-1.4 0.7-2.2 1.9-2.2 1.2 0 1.5 0.8 1.9 2.2l4.2 13.1h0.1l4.1-13.6c0.5-1.4 1.2-1.7 1.9-1.7 1.1 0 1.5 0.9 1.5 1.5 0 0.3-0.1 0.8-0.2 1.3l-5.5 15.8c-0.4 1.3-0.9 1.7-1.9 1.7-0.8 0-1.4-0.4-1.8-1.7l-4.2-13.4h-0.1l-4.3 13.4c-0.4 1.3-0.9 1.7-1.8 1.7-1 0-1.5-0.4-1.9-1.7zm45.8 16c0 1.1-0.9 1.6-1.5 1.6-0.7 0-1.6-0.5-1.6-1.6v-1.4c-1.5 2-3.3 3-5.4 3-5.6 0-8.8-4.9-8.8-10.2 0-5.2 3.2-10.1 8.8-10.1 2.2 0 3.8 0.9 5.4 2.6v-1c0-1.2 0.9-1.6 1.6-1.6 0.6 0 1.5 0.4 1.5 1.6zm-8.5-1.3c4 0 5.4-3.9 5.4-7.3 0-3.4-1.4-7.3-5.4-7.3-4.1 0-5.5 3.9-5.5 7.3 0 3.4 1.4 7.3 5.5 7.3zm12.8-15.7c0-1.1 0.6-1.7 1.6-1.7 1 0 1.7 0.6 1.7 1.7v1.7h0.1c0.7-1.5 2.5-3.4 4.4-3.4 1.2 0 1.8 0.7 1.8 1.7q0 1.4-2 1.7c-1.9 0.4-4.3 1.8-4.3 5.7v9.4c0 1.1-0.7 1.8-1.7 1.8-1 0-1.6-0.7-1.6-1.8zm26.1 9.7h-12.3c0 3.4 2.2 6 5.8 6 4.4 0 5.5-2.7 6.8-2.7 0.6 0 1.1 0.6 1.1 1.5 0 1.6-4 4-7.9 4-6.3 0-9.1-4.8-9.1-10.1 0-5.4 3.4-10.1 8.9-10.1 5.4 0 8.6 4.8 8.6 9.6 0 1.2-0.5 1.8-1.9 1.8zm-1.4-2.5c0-2.8-1.7-6.1-5.3-6.1-4-0.2-5.5 3.1-5.6 6.1z"/>
		<path id="Layer" fill-rule="evenodd" class="s2" d="m36.5 74.4q0.7 0 1.2 0.3 0.6 0.2 1.1 0.7 0.4 0.4 0.7 1 0.2 0.6 0.2 1.2v23.5q0 0.6-0.2 1.2-0.3 0.6-0.7 1.1-0.5 0.4-1.1 0.6-0.5 0.3-1.2 0.3h-23.5q-0.6 0-1.2-0.3-0.6-0.2-1-0.6-0.5-0.5-0.7-1.1-0.3-0.6-0.3-1.2v-23.5q0.1-0.6 0.3-1.2 0.2-0.6 0.7-1 0.4-0.5 1-0.7 0.6-0.3 1.2-0.3zm-23.5 28.1h23.5c0.8 0 1.4-0.6 1.4-1.4v-23.5c0-0.8-0.6-1.4-1.4-1.4h-23.5q-0.3 0-0.5 0.1-0.3 0.1-0.5 0.3-0.2 0.2-0.3 0.5-0.1 0.2-0.1 0.5v23.5c0 0.8 0.7 1.4 1.4 1.4z"/>
		<path id="Layer" fill-rule="evenodd" class="s2" d="m43.5 81.5q0.7 0 1.3 0.2 0.5 0.2 1 0.7 0.4 0.4 0.7 1 0.2 0.6 0.2 1.2v23.5q0 0.7-0.2 1.2-0.3 0.6-0.7 1.1-0.5 0.4-1 0.7-0.6 0.2-1.3 0.2h-23.5q-0.6 0-1.2-0.2-0.6-0.3-1-0.7-0.4-0.5-0.7-1.1-0.2-0.5-0.2-1.2v-23.5q0-0.6 0.2-1.2 0.3-0.6 0.7-1 0.4-0.5 1-0.7 0.6-0.2 1.2-0.2zm-24.7 27.2q0.1 0.2 0.3 0.4 0.1 0.2 0.4 0.3 0.3 0.1 0.5 0.1h23.5c0.8 0 1.4-0.6 1.4-1.4v-23.5c0-0.7-0.6-1.4-1.4-1.4h-23.5q-0.2 0-0.5 0.1-0.2 0.2-0.4 0.3-0.2 0.2-0.3 0.5-0.2 0.3-0.2 0.5v23.5q0 0.3 0.2 0.6z"/>
		<path id="Layer" fill-rule="evenodd" class="s2" d="m29.5 88.5q0.6 0 1.2 0.2 0.6 0.3 1 0.7 0.5 0.5 0.7 1 0.3 0.6 0.3 1.2v23.5q0 0.7-0.3 1.3-0.2 0.5-0.7 1-0.4 0.4-1 0.7-0.6 0.2-1.2 0.2h-23.5q-0.6 0-1.2-0.2-0.6-0.3-1-0.7-0.5-0.5-0.7-1-0.3-0.6-0.3-1.3v-23.5q0-0.6 0.3-1.2 0.2-0.5 0.7-1 0.4-0.4 1-0.7 0.6-0.2 1.2-0.2zm-24.8 27.2q0.1 0.2 0.3 0.4 0.2 0.2 0.5 0.3 0.2 0.1 0.5 0.1h23.5c0.8 0 1.4-0.6 1.4-1.4v-23.5c0-0.7-0.6-1.3-1.4-1.3h-23.5c-0.8 0-1.4 0.6-1.4 1.3v23.5q0 0.3 0.1 0.6z"/>
		<path id="Layer" fill-rule="evenodd" class="s1" d="m186.1 88.9v0.4h-1v3h-0.5v-3h-1.1v-0.4zm3.8 3.4l-0.2-3.4h-0.7l-0.6 1.8q-0.2 0.4-0.3 0.9-0.1-0.5-0.2-0.9l-0.7-1.8h-0.7l-0.2 3.4h0.5l0.1-2.1c0-0.3 0-0.6 0-0.9 0.1 0.3 0.2 0.7 0.3 0.9l0.7 2h0.4l0.7-1.9c0.1-0.3 0.2-0.7 0.3-1 0 0.3 0 0.7 0 0.9l0.1 2.1z"/>
	</g>
</svg>