<svg version="1.2" xmlns="http://www.w3.org/2000/svg" viewBox="0 0 65 65" width="52" height="52">
	<title>alibabacloud-icon-svg</title>
	<style>
		.s0 { fill: #373c41 } 
	</style>
	<path id="Layer" class="s0" d="m8.7 13.1c-2.9 0.6-6 2.9-7.3 5.5-1.3 2.5-1.4 3.2-1.4 13.9 0 5.8 0.1 10.5 0.3 11.2 0.8 4.4 4.2 7.8 8.6 8.7 1.3 0.2 18.6 0.3 18.6 0.1 0-0.2-1.5-6-1.5-6.1-0.1 0-3.1-0.7-6.8-1.5-8.7-1.9-8.4-1.8-9.2-2.7l-0.6-0.7v-17.5l0.6-0.8c0.8-0.9 0.5-0.8 9.2-2.7l6.8-1.5c0 0 1.5-5.8 1.5-6 0-0.2-17.6-0.1-18.8 0.1zm28 0.1c0 0.4 1.3 5.7 1.5 5.8 0 0.1 3.3 0.9 7.3 1.7 3.9 0.8 7.5 1.7 7.8 1.9q0.6 0.4 1 1c0.4 0.7 0.4 1.4 0.4 9.2 0 7.7 0 8.4-0.4 9.1q-0.1 0.2-0.2 0.3-0.1 0.2-0.3 0.3-0.1 0.1-0.2 0.2-0.2 0.1-0.3 0.2c-0.3 0.2-3.8 1-7.8 1.9l-7.3 1.7c-0.2 0.1-1.5 5.4-1.5 5.9 0 0.2 1.7 0.3 9.3 0.2 10.5-0.1 10.6-0.1 13.3-1.9 1.9-1.3 3.4-3.2 4.2-5.4 0.5-1.7 0.5-1.8 0.5-12.5 0-10.8 0-10.9-0.5-12.5q-0.3-0.8-0.7-1.6-0.4-0.8-1-1.5-0.5-0.7-1.1-1.3-0.7-0.6-1.4-1c-2.7-1.9-2.8-1.9-13.3-2-7.6 0-9.3 0-9.3 0.3zm-10.8 19.1q0 0.1 0 0.2-0.1 0.1-0.1 0.2 0 0.1 0 0.2 0 0.1 0.1 0.2c0 0.4 0.5 0.4 6.1 0.5h6.1v-1.7h-6c-5.1 0-6.1 0.1-6.2 0.4z"/>
</svg>