<svg version="1.2" xmlns="http://www.w3.org/2000/svg" viewBox="0 0 256 256" width="52" height="52">
	<title>ansible-svg</title>
	<style>
		.s0 { fill: #1a1918 } 
		.s1 { fill: #ffffff } 
	</style>
	<g id="Layer">
		<path id="Layer" fill-rule="evenodd" class="s0" d="m67.5 313.9c-0.5 0-1.1-0.2-1.5-0.7l-17.4-22.9v23.3h-4v-28.7c0-1.1 1-2 2.1-2 0.6 0 1.1 0.1 1.5 0.7l17.4 22.8v-23.2h3.9v28.7c0 1.1-0.9 2-2 2zm32.8 0.2c-4 0-8.1-0.8-12-2.2l1-3.3c3.5 1.1 7.4 1.9 11 1.9 5 0 7.6-1.8 7.6-4.3 0-2.3-2-3.4-9-6.7-7-3.3-9.7-5.4-9.7-9.5 0-5.2 3.9-7.3 11.4-7.3 3.1 0 7.9 0.7 10.7 1.5l-0.7 3.4c-3-0.8-6.8-1.3-9.9-1.3-5.3 0-7.4 1-7.4 3.6 0 2.4 1.6 3.5 8.9 6.9 7.8 3.6 9.8 5.4 9.8 9.2 0 5.4-5.1 8.1-11.7 8.1zm30.5-30.9h4.1v30.4h-4.1zm39 30.5h-12.2q-0.5 0-0.8-0.2-0.4-0.1-0.7-0.4-0.3-0.3-0.5-0.7-0.1-0.4-0.1-0.8v-26.3c0-1.1 0.9-2.1 2.1-2.1h10.1c6.2 0 9.9 3.1 9.9 7.9 0 2.6-1.5 5-3.9 6.4 3.5 1.1 5.8 4 5.8 7.5 0 4.8-4 8.7-9.7 8.7zm-2-27h-8.2v9.7h8.2c3.3 0 5.7-2.1 5.7-5 0-2.9-2.1-4.7-5.7-4.7zm2 13.2h-10.2v10.3h10.2c3.4 0 5.5-2.2 5.5-5.2 0-2.9-2.2-5.1-5.5-5.1zm29.4 13.8c-1.1 0-2-1-2-2.1v-28.4h4.1v26.8h16.3v3.7zm46.3 0.5c-8.4 0-13.4-3.1-13.4-9.4 0-3 1.6-5.8 4.9-7.1-2.6-1.7-4-4-4-6.6 0-5.6 4.4-8.3 12.6-8.3 2.7 0 6.6 0.3 9.9 1l-0.5 3.4c-3.4-0.5-6.6-0.9-9.7-0.9-5.3 0-8.2 1.5-8.2 5 0 2.8 2.6 5 6.1 5h7c1 0 1.8 0.8 1.8 1.7 0 1.1-0.8 1.8-1.8 1.8h-7.5c-4 0-6.5 2-6.5 5 0 4.4 4.1 5.8 9.2 5.8 2.8 0 6.6-0.4 9.7-1.1l0.5 3.3c-2.9 0.8-6.7 1.4-10.1 1.4zm-218.4-2.3c0 1.2-1 2-2.1 2-0.5 0-0.9-0.2-1.5-0.7l-14.3-11.7-4.8 12.2h-4.2l12.2-29.6q0.1-0.3 0.2-0.5 0.2-0.2 0.4-0.4 0.3-0.1 0.6-0.2 0.2-0.1 0.5-0.1c0.8 0 1.4 0.4 1.7 1.2l11.1 27c0.1 0.3 0.2 0.6 0.2 0.8zm-16.6-13.6l10.8 8.6-7.2-18z"/>
	</g>
	<path id="Layer" class="s0" d="m255.9 127.9c0 70.4-57.1 127.5-127.6 127.5-70.4 0-127.6-57.1-127.6-127.5 0-70.5 57.2-127.6 127.6-127.6 70.5 0 127.6 57.1 127.6 127.6z"/>
	<path id="Layer" fill-rule="evenodd" class="s1" d="m190 182.2c0 5.4-4.4 9.1-9.3 9.1-2.5 0-4.4-0.9-7.1-3.1l-65.8-53.2-22.1 55.3h-19.1l55.8-134c1.4-3.6 4.5-5.4 8.1-5.4 3.5 0 6.4 1.8 7.8 5.4l50.8 122.2c0.6 1.5 0.9 2.9 0.9 3.7zm-76.4-61.8l49.9 39.3-33-81.5c0 0-16.9 42.2-16.9 42.2z"/>
</svg>