<svg version="1.2" xmlns="http://www.w3.org/2000/svg" viewBox="0 0 360 360" width="52" height="52">
	<title>argo-icon-color-svg</title>
	<style>
		.s0 { fill: #e9654b } 
		.s1 { fill: #b6cfea } 
		.s2 { fill: #e6f5f8 } 
		.s3 { fill: #d0e8f0 } 
		.s4 { fill: #ee794b } 
		.s5 { fill: #e34e3b } 
		.s6 { fill: #fbdfc3 } 
		.s7 { fill: #010101 } 
		.s8 { fill: #ffffff } 
	</style>
	<path id="Layer" class="s0" d="m123.9 269.9c0 0-2.4 3.6-8.4 3.6-2.4-1.2-2.4-1.2-6-1.2-9.6-1.2-19.4-2.2-17.9-2.4q2.2-0.3 4.5-0.7 2.3-0.3 4.5-0.8 2.2-0.4 4.5-1 2.2-0.5 4.4-1.1 1.2 0.1 2.3-0.2 1.2-0.2 2.3-0.6 1.1-0.5 2-1.2 1-0.7 1.8-1.6c3.6-3.5 6-10.7 6-10.7z"/>
	<path id="Layer" class="s0" d="m233.8 252c0 0 2.4 7.2 6 10.7q0.8 0.9 1.8 1.6 0.9 0.7 2 1.2 1.1 0.4 2.3 0.6 1.1 0.3 2.3 0.2 2.2 0.6 4.4 1.1 2.3 0.6 4.5 1 2.2 0.5 4.5 0.8 2.3 0.4 4.5 0.7c1.5 0.2-8.3 1.2-19.1 2.4-3.6 0-3.6 0-6 1.2-7.2 0-8.3-3.6-8.3-3.6z"/>
	<path id="Layer" class="s1" d="m180 262.7c-71.4 0-129.1-57.7-129.1-129.1 0-71.4 57.7-129.1 129.1-129.1 71.4 0 129.2 57.7 129.2 129.1 0 71.4-57.8 129.1-129.2 129.1z"/>
	<path id="Layer" class="s2" d="m180 258c-68.7 0-124.3-55.6-124.3-124.4 0-68.7 55.6-124.3 124.3-124.3 68.8 0 124.4 55.6 124.4 124.3 0 68.8-55.6 124.4-124.4 124.4z"/>
	<path id="Layer" class="s3" d="m180 237.6c-56.2 0-101.6-45.4-101.6-101.6 0-56.2 45.4-101.6 101.6-101.6 56.2 0 101.7 45.4 101.7 101.6 0 56.2-45.5 101.6-101.7 101.6z"/>
	<g id="Body">
		<path id="Layer" class="s4" d="m200.4 208.9l-26.3 133.9c0 0-2.4 10.8-18 12h-31.1c0 0 10.8-2.4 19.2-4.8 13.1-2.4 16.7-6 16.7-10.7 0-6-1.2-59.8-1.2-59.8l-3.6 53.8c0 0 0 10.7-16.7 10.7h-27.5c0 0 17.9-3.5 23.9-4.7 8.4-2.4 9.6-6 9.6-8.4 0-2.4-1.2-63.4-1.2-63.4 0 0-3.6 51.4-3.6 53.8 0 2.4 0 13.2-13.2 13.2h-28.7c0 0 19.2-4.8 25.2-7.2 5.9-2.4 4.7-4.8 4.7-6 0-2.4-8.3-137.5-8.3-137.5z"/>
		<path id="Layer" class="s4" d="m239.8 183.8c0 0-8.3 135.1-8.3 137.5 0 1.2-1.2 3.6 4.7 6 6 2.4 25.1 7.2 25.1 7.2h-28.6c-13.2 0-13.2-10.8-13.2-13.2 0-2.4-3.6-53.8-3.6-53.8 0 0-1.2 61-1.2 63.4 0 2.4 1.2 6 9.6 8.4 6 1.2 23.9 4.7 23.9 4.7h-27.5c-16.7 0-16.7-10.7-16.7-10.7l-3.6-53.8c0 0-1.2 53.8-1.2 59.8 0 4.7 3.6 8.3 16.7 10.7 8.4 2.4 19.1 4.8 19.1 4.8h-31c-15.6-1.2-18-12-18-12l-26.3-133.9z"/>
		<path id="Layer" class="s4" d="m241 118.1c0 33.5-27.5 59.8-59.8 59.8-32.2 0-59.7-27.5-59.7-59.8 0-32.3 27.5-59.8 59.7-59.8 32.3 0 59.8 26.3 59.8 59.8z"/>
		<g id="Layer">
			<path id="Layer" class="s4" d="m181.2 256.8c-58.8 0-106.4-47.6-106.4-106.4 0-58.9 47.6-106.4 106.4-106.4 58.9 0 106.4 47.5 106.4 106.4 0 58.8-47.5 106.4-106.4 106.4z"/>
		</g>
		<g id="Layer" style="opacity: .2">
			<path id="Layer" class="s5" d="m200.4 165.9c0 0 1.2-37.1 0-62.2-1.2-35.8-25.1-45.4-25.1-45.4 0 0 41.8-3.6 59.7 38.3 9.6 23.9 2.4 87.2 2.4 87.2z"/>
		</g>
	</g>
	<g id="Face">
		<g id="Layer" style="opacity: .5">
			<path id="Layer" class="s6" d="m156.1 94.2c-4.6 0-8.3-3.8-8.3-8.4 0-4.6 3.7-8.4 8.3-8.4 4.7 0 8.4 3.8 8.4 8.4 0 4.6-3.7 8.4-8.4 8.4z"/>
		</g>
		<path id="Layer" class="s7" d="m201.6 207.7c0 20.4-9.6 33.5-21.6 33.5-11.9 0-21.5-15.5-21.5-35.8 0 0 9.6 19.1 22.7 19.1 13.2 0 20.4-16.8 20.4-16.8z"/>
		<path id="Layer" class="s8" d="m201.6 207.7c0 13.2-9.6 20.4-21.6 20.4-11.9 0-20.3-9.6-20.3-21.5 0 0 9.6 11.9 22.7 11.9 13.2 0 19.2-10.8 19.2-10.8z"/>
		<path id="Layer" class="s0" d="m221.9 188.6c-20.5 0-37.1-16.6-37.1-37 0-20.5 16.6-37.1 37.1-37.1 20.5 0 37.1 16.6 37.1 37.1 0 20.4-16.6 37-37.1 37z"/>
		<path id="Layer" class="s0" d="m138.2 188.6c-20.5 0-37.1-16.6-37.1-37 0-20.5 16.6-37.1 37.1-37.1 20.5 0 37.1 16.6 37.1 37.1 0 20.4-16.6 37-37.1 37z"/>
		<path id="Layer" class="s8" d="m221.9 180.2c-15.9 0-28.7-12.8-28.7-28.6 0-15.9 12.8-28.7 28.7-28.7 15.9 0 28.7 12.8 28.7 28.7 0 15.8-12.8 28.6-28.7 28.6z"/>
		<path id="Layer" class="s8" d="m135.8 180.2c-15.9 0-28.7-12.8-28.7-28.6 0-15.9 12.8-28.7 28.7-28.7 15.9 0 28.7 12.8 28.7 28.7 0 15.8-12.8 28.6-28.7 28.6z"/>
		<path id="Layer" class="s7" d="m135.8 156.3c-4.6 0-8.4-3.7-8.4-8.3 0-4.7 3.8-8.4 8.4-8.4 4.6 0 8.4 3.7 8.4 8.4 0 4.6-3.8 8.3-8.4 8.3z"/>
		<path id="Layer" class="s7" d="m221.9 156.3c-4.6 0-8.4-3.7-8.4-8.3 0-4.7 3.8-8.4 8.4-8.4 4.6 0 8.4 3.7 8.4 8.4 0 4.6-3.8 8.3-8.4 8.3z"/>
	</g>
	<path id="Layer" class="s1" d="m48.5 165.9q-1.2 0.1-2.3-0.4-1.1-0.4-2-1.2-0.9-0.9-1.3-2-0.4-1.2-0.3-2.4v-47.8q-0.1-1.2 0.3-2.3 0.4-1.2 1.3-2 0.9-0.9 2-1.3 1.1-0.4 2.3-0.4 1.2 0 2.4 0.4 1.1 0.4 2 1.3 0.8 0.8 1.3 2 0.4 1.1 0.3 2.3v47.8q0.1 1.2-0.3 2.4-0.5 1.1-1.3 2-0.9 0.8-2 1.2-1.2 0.5-2.4 0.4z"/>
	<path id="Layer" class="s1" d="m309.2 165.9q-1.2 0.1-2.4-0.4-1.1-0.4-2-1.2-0.8-0.9-1.3-2-0.4-1.2-0.3-2.4v-47.8q-0.1-1.2 0.3-2.3 0.5-1.2 1.3-2 0.9-0.9 2-1.3 1.2-0.4 2.4-0.4 1.2 0 2.3 0.4 1.1 0.4 2 1.3 0.9 0.8 1.3 2 0.4 1.1 0.3 2.3v47.8q0.1 1.2-0.3 2.4-0.4 1.1-1.3 2-0.9 0.8-2 1.2-1.1 0.5-2.3 0.4z"/>
	<path id="Layer" class="s8" d="m139.4 44c-3.3 0-6-2.7-6-6 0-3.3 2.7-6 6-6 3.3 0 6 2.7 6 6 0 3.3-2.7 6-6 6z"/>
	<path id="Layer" class="s8" d="m96.4 199.4q-0.5 0-1 0-0.5-0.1-1-0.2-0.4-0.2-0.9-0.4-0.4-0.3-0.7-0.6c-14.4-18-21.6-40.7-21.6-63.4q0-7 0.9-14 0.9-7 2.8-13.8 1.8-6.8 4.5-13.4 2.7-6.5 6.2-12.6 3.6-5.8 7.8-11.2 4.3-5.3 9.1-10.2 4.8-4.8 10.2-9 5.3-4.3 11.2-7.8 0.7-0.4 1.5-0.5 0.8-0.1 1.6 0.1 0.8 0.2 1.6 0.6 0.7 0.4 1.2 1 0.4 0.7 0.5 1.5 0 0.8-0.1 1.6-0.2 0.8-0.6 1.6-0.4 0.7-1 1.2c-7.3 4.2-14.1 9.3-20.2 15.3-6 5.9-11.3 12.7-15.6 20-4.2 7.3-7.5 15.1-9.8 23.3-2.2 8.2-3.4 16.6-3.4 25.1q0 7.9 1.3 15.7 1.3 7.9 3.9 15.3 2.6 7.5 6.4 14.5 3.8 6.9 8.7 13.1c1.2 1.2 1.2 4.8-1.2 6-1.1 1.2-1.1 1.2-2.3 1.2z"/>
	<g id="Layer" style="opacity: .3">
		<path id="Layer" class="s0" d="m178.9 274.7c-37.1 0-55-19.1-55-19.1l-1.2-9.6c15.5 8.4 31 19.1 55 19.1 21.5 0 39.4-9.5 56.1-19.1v9.6c0 0-20.3 17.9-54.9 19.1z"/>
	</g>
</svg>