<svg version="1.2" xmlns="http://www.w3.org/2000/svg" viewBox="0 0 1088 857" width="52" height="52">
	<title>aws-logo-svg</title>
	<style>
		.s0 { fill: #f7a80d } 
	</style>
	<path id="Layer" class="s0" d="m417.5 588.6l-107 39.4-92.3-39.4 99.6-42.8zm-106.9 67.5v199.9l-145.8-64.2 3.3-192.5zm157.2 128.4l-131.7 53.4v-188.5l131.7-50.1zm256.7-741.5l-107 39.4-92.9-39.4 100.3-42.8zm-110.3 67.5l-4 175.2-124.4-36.1v-192.6zm149.8 143.1l-117.7 53.5v-189.2l117.7-50.2c0 0 0 185.9 0 185.9zm-510.5 60.4l-107 39.4-92.3-39.4 99.7-42.8zm-107 67.5v200l-145.8-64.2 3.4-192.6zm157.1 128.4l-131.7 53.5v-188.6l131.7-50.1zm270.8-203l-107 39.4-92.2-39.4 99.6-42.8zm-107 67.5v199.9l-145.8-64.2 3.4-192.5zm157.1 128.3l-131.7 53.5v-188.5l131.7-50.2zm413.4-459.8l-106.9 39.5-92.3-39.5 99.6-42.8zm-107 67.6v199.9l-145.7-64.2 3.3-192.6zm157.2 128.4l-131.7 53.5v-188.6l131.7-50.1z"/>
</svg>