<svg version="1.2" xmlns="http://www.w3.org/2000/svg" viewBox="0 0 258 232" width="52" height="52">
	<title>bitbucket-icon-svg</title>
	<defs>
		<linearGradient id="g1" x1="46138.7" y1="3301.4" x2="19953.4" y2="18453.3" gradientUnits="userSpaceOnUse">
			<stop offset=".2" stop-color="#0052cc"/>
			<stop offset="1" stop-color="#2684ff"/>
		</linearGradient>
	</defs>
	<style>
		.s0 { fill: none } 
		.s1 { fill: #2684ff } 
		.s2 { fill: url(#g1) } 
	</style>
	<g id="Layer">
		<path id="Layer" class="s0" d="m88.1 78.2h80.5l-12.9 75.4h-53.4z"/>
		<path id="Layer" fill-rule="evenodd" class="s1" d="m248.7 1c1.2 0 2.4 0.3 3.5 0.8 1.1 0.5 2 1.2 2.8 2.1 0.8 0.9 1.4 2 1.7 3.1 0.3 1.2 0.4 2.4 0.2 3.6l-34.8 213.7q-0.3 1.5-1 2.7-0.7 1.3-1.8 2.3-1.2 0.9-2.6 1.4-1.4 0.5-2.8 0.5h-167.1q-1.9 0-3.8-0.7-1.8-0.7-3.3-2-1.5-1.2-2.5-3-0.9-1.7-1.3-3.6l-34.8-211.4c-0.2-1.2-0.1-2.4 0.2-3.5 0.3-1.2 0.9-2.2 1.7-3.2 0.8-0.9 1.7-1.6 2.8-2.1 1.1-0.5 2.3-0.7 3.5-0.7zm-79.8 77.3h-80.7l14.4 75.4h53.3z"/>
		<path id="Layer" class="s2" d="m221.9 224.1q-0.2 1.4-0.9 2.7-0.8 1.3-1.9 2.2-1.1 1-2.5 1.5-1.4 0.5-2.9 0.5h-166.9q-1 0-2-0.2-0.9-0.2-1.8-0.5-1-0.4-1.8-0.9-0.8-0.5-1.6-1.1l62.9-74.7h53.3l12.9-75.4h76.9z"/>
	</g>
</svg>