<svg version="1.2" xmlns="http://www.w3.org/2000/svg" viewBox="0 0 799 456" width="52" height="52">
	<title>cisco-2-svg</title>
	<defs>
		<clipPath clipPathUnits="userSpaceOnUse" id="cp1">
			<path d="m0.75 0.76h797.66v454.44h-797.66z"/>
		</clipPath>
	</defs>
	<style>
		.s0 { fill: #c4122e } 
		.s1 { fill: #15495d } 
	</style>
	<path id="Layer" class="s0" d="m260 406.8h-32.6v-129.3h32.6z"/>
	<g id="Layer">
		<g id="Clip-Path" clip-path="url(#cp1)">
			<g id="Layer">
				<path id="Layer" fill-rule="evenodd" class="s0" d="m523.1 314.6c-1.3-0.7-11.8-6.9-27.4-6.9-21.1 0-35.7 14.6-35.7 34.5 0 19.2 14 34.5 35.7 34.5 15.3 0 26-6.1 27.4-6.9v34.7c-4 1.2-15.2 4.6-29.7 4.6-36.7 0-68.9-25.3-68.9-67 0-38.6 29.1-66.9 68.9-66.9 15.3 0 26.7 3.7 29.7 4.7zm-340.6 0c-1.3-0.7-11.8-6.9-27.4-6.9-21.2 0-35.8 14.6-35.8 34.4 0 19.3 14 34.6 35.8 34.6 15.3 0 26-6.1 27.4-6.9v34.7c-4.1 1.2-15.2 4.6-29.8 4.6-36.6 0-68.8-25.3-68.8-67 0-38.6 29.1-66.9 68.8-66.9 15.4 0 26.7 3.7 29.8 4.6zm511.6 27.6c0 37-28.5 67-68.3 67-39.8 0-68.3-30-68.3-67 0-36.9 28.5-66.9 68.3-66.9 39.8 0 68.3 30 68.3 66.9zm-68.3-34c-19.4 0-33.7 15.3-33.7 34 0 18.8 14.3 34.1 33.7 34.1 19.3 0 33.8-15.3 33.8-34.1 0-18.7-14.5-34-33.8-34zm-242-1.2c-0.5-0.2-14.3-4-25.6-4-13 0-20.1 4.4-20.1 10.6 0 7.9 9.6 10.7 14.9 12.4l9 2.8c21.2 6.8 30.9 21.3 30.9 37 0 32.5-28.6 43.4-53.6 43.4-17.3 0-33.6-3.2-35.2-3.5v-29.8c2.9 0.7 16.5 4.8 30.8 4.8 16.2 0 23.7-4.7 23.7-12 0-6.6-6.5-10.4-14.5-12.9-2-0.7-5-1.6-7-2.3-18.2-5.7-33.3-16.4-33.3-37.8 0-24.2 18.1-40.4 48.2-40.4 15.8 0 30.8 3.8 31.8 4.1 0 0 0 27.6 0 27.6z"/>
				<path id="Layer" class="s1" d="m49.3 172.5c-0.1 4.2-1.9 8.2-4.9 11.2-3.1 2.9-7.1 4.6-11.3 4.6-4.3 0-8.3-1.7-11.4-4.6-3-3-4.7-7-4.8-11.2v-34c0-8.9 7.2-16.1 16.2-16.1 8.9 0 16.2 7.2 16.2 16.1zm89 0c0 4.3-1.8 8.4-4.8 11.5-3 3-7.1 4.7-11.4 4.7-4.3 0-8.5-1.7-11.5-4.7-3-3.1-4.7-7.2-4.7-11.5v-78.5c0-4.3 1.7-8.4 4.7-11.4 3-3.1 7.2-4.8 11.5-4.8 4.3 0 8.4 1.7 11.4 4.8 3 3 4.8 7.1 4.8 11.4 0 0 0 78.5 0 78.5zm89 32.3c-0.1 4.2-1.9 8.2-4.9 11.2-3.1 2.9-7.1 4.6-11.3 4.6-4.3 0-8.3-1.7-11.4-4.6-3-3-4.7-7-4.8-11.2v-171.7c0-9 7.2-16.2 16.2-16.2 8.9 0 16.2 7.2 16.2 16.2zm89-32.3c0 4.3-1.8 8.4-4.8 11.4-3 3.1-7.2 4.8-11.4 4.8-4.3 0-8.5-1.7-11.5-4.8-3-3-4.7-7.1-4.8-11.4l0.1-78.5c0-4.3 1.7-8.4 4.7-11.5 3-3 7.2-4.7 11.5-4.7 4.2 0 8.4 1.7 11.4 4.7 3 3.1 4.8 7.2 4.8 11.5 0 0 0 78.5 0 78.5zm88.9 0c0 4.3-1.7 8.4-4.8 11.4-3 3-7.1 4.7-11.4 4.7-4.3 0-8.4-1.7-11.4-4.7-3-3-4.7-7.1-4.7-11.4v-34c0-2.1 0.4-4.2 1.2-6.1 0.8-2 2-3.8 3.5-5.3 1.5-1.5 3.3-2.7 5.3-3.5 1.9-0.8 4-1.2 6.2-1.2 2.1 0 4.2 0.4 6.1 1.2 2 0.9 3.7 2 5.2 3.5 1.5 1.5 2.7 3.3 3.5 5.3 0.8 1.9 1.3 4 1.3 6.1zm89 0c0 4.3-1.7 8.4-4.7 11.5-3.1 3-7.2 4.7-11.5 4.7-4.2 0-8.3-1.7-11.4-4.7-3-3.1-4.7-7.2-4.7-11.5v-78.5c0.1-4.2 1.8-8.2 4.9-11.1 3-3 7-4.6 11.2-4.6 4.3 0 8.3 1.6 11.3 4.6 3 2.9 4.8 6.9 4.9 11.1 0 0 0 78.5 0 78.5zm89.1 32.3c0.1 4.4-1.5 8.7-4.5 11.9-3.1 3.2-7.3 5-11.7 5-4.4 0-8.6-1.8-11.7-5-3-3.2-4.6-7.5-4.5-11.9l0.1-171.7c0-4.3 1.7-8.4 4.7-11.4 3-3.1 7.1-4.8 11.4-4.8 4.3 0 8.4 1.7 11.4 4.8 3 3 4.7 7.1 4.8 11.4zm89-32.3c0 9-7.2 16.2-16.4 16.2-8.9 0-16.1-7.2-16.1-16.2v-78.5c0-2.1 0.4-4.2 1.2-6.2 0.8-1.9 2-3.7 3.5-5.2 1.5-1.5 3.3-2.7 5.3-3.5 1.9-0.8 4-1.3 6.1-1.3 9.2 0 16.4 7.3 16.4 16.2 0 0 0 78.5 0 78.5zm88.8 0c0 9-7.2 16.2-16.1 16.2-8.9 0-16.2-7.2-16.2-16.2v-33.9c0-4.3 1.7-8.4 4.8-11.5 3-3 7.1-4.7 11.4-4.7 4.3 0 8.4 1.7 11.4 4.7 3 3.1 4.7 7.2 4.8 11.5-0.1 0-0.1 33.9-0.1 33.9z"/>
				<path id="Layer" class="s0" d="m742.5 389.8v2h-5.8v15h-2.4v-15h-5.8v-2zm1.2 0h3.8l5.1 14 5-14h3.6v17h-2.4v-13.9h-0.1l-5.2 13.9h-2.2l-5.1-13.9h-0.1v13.9h-2.4z"/>
			</g>
		</g>
	</g>
</svg>