<svg version="1.2" xmlns="http://www.w3.org/2000/svg" viewBox="0 0 38 41" width="52" height="52">
	<title>confluent-logos-id1lzA85Oz-svg</title>
	<style>
		.s0 { fill: #0074a1 } 
	</style>
	<g id="Layer">
		<path id="Layer" fill-rule="evenodd" class="s0" d="m62.1 22.2h1.9c-0.8 3.5-3.7 5.8-7.6 5.8-4.7 0-8.4-3.4-8.4-8 0-4.6 3.7-8 8.4-8 3.9 0 6.8 2.3 7.6 5.8h-1.9c-0.7-2.5-2.8-4.1-5.7-4.1-3.7 0-6.5 2.7-6.5 6.3 0 3.6 2.8 6.3 6.5 6.3 2.9 0 5-1.6 5.7-4.1zm21.9-2.2c0 4.5-3.6 8-8 8-4.4 0-8-3.5-8-8 0-4.5 3.6-8 8-8 4.4 0 8 3.5 8 8zm-1.8 0c0-3.5-2.7-6.3-6.2-6.3-3.5 0-6.2 2.8-6.2 6.3 0 3.5 2.7 6.3 6.2 6.3 3.5 0 6.2-2.8 6.2-6.3zm20.8-8v16h-1.5l-9.7-12.6v12.6h-1.8v-16h1.4l9.8 12.8v-12.8zm8.9 1.7v5.9h8.1v1.7h-8.1v6.7h-1.9v-16h11v1.7zm26.2 12.6v1.7h-11v-16h1.9v14.3zm17-5.3c0 4.2-2.8 7-7 7-4.2 0-7-2.8-7-7v-9h1.9v9c0 3.1 2 5.3 5.1 5.3 3 0 5.1-2.2 5.1-5.3v-9h1.9zm8.8-7.3v5.5h8.3v1.7h-8.3v5.4h9.2v1.7h-11v-16h11v1.7zm27.2-1.7v16h-1.5l-9.8-12.6v12.6h-1.7v-16h1.4l9.8 12.8v-12.8zm19 1.7h-5.6v14.3h-1.8v-14.3h-5.6v-1.7h13zm-186.3 7.3q-1.1 0.1-2.2 0.1 1 0.4 2.1 0.9l2.3 1.1q1.2 0.5 2.4 1.1l-0.2 0.6q-1.3-0.4-2.5-0.9l-2.5-0.9q-1-0.4-2-0.8 0.1 0.2 0.3 0.4 0.2 0.2 0.4 0.4 0.2 0.2 0.4 0.4 0.2 0.2 0.4 0.4l1.8 1.9q0.9 1 1.7 2l-0.4 0.5q-1-0.9-2-1.8l-1.9-1.8q-0.8-0.8-1.6-1.5 0.4 1 0.8 2l0.9 2.5q0.5 1.2 0.9 2.5l-0.6 0.2q-0.6-1.2-1.1-2.4l-1.1-2.3q-0.5-1.1-0.9-2.1 0 1.1-0.1 2.2v2.7q-0.1 1.3-0.2 2.6h-0.6q-0.1-1.3-0.2-2.6l-0.1-2.7q0-2.3 0-4.6-2.4 0-4.7 0l-2.6-0.1q-1.3-0.1-2.6-0.1v-0.8q1.3-0.1 2.6-0.1l2.6-0.1q1.1 0 2.2 0-1-0.4-2-0.9l-2.4-1.1q-1.2-0.5-2.4-1.1l0.3-0.7q1.3 0.5 2.5 0.9l2.5 0.9q1 0.4 2 0.8-0.8-0.7-1.5-1.5l-1.8-1.9q-0.9-1-1.8-2l0.5-0.5q1 0.9 2 1.8l1.9 1.8q0.2 0.2 0.4 0.3 0.2 0.2 0.4 0.4 0.2 0.2 0.4 0.4 0.1 0.2 0.3 0.4-0.4-1-0.8-2l-0.9-2.5q-0.4-1.2-0.9-2.5l0.7-0.3q0.6 1.2 1.1 2.4l1.1 2.4q0.4 1 0.9 2 0-1.1 0-2.2l0.1-2.6q0-1.3 0.1-2.6h0.8q0 1.3 0.1 2.6l0.1 2.6q0 2.4 0 4.7 2.3 0 4.6 0l2.7 0.1q1.3 0.1 2.6 0.2v0.6q-1.3 0.1-2.6 0.2z"/>
		<path id="Layer" fill-rule="evenodd" class="s0" d="m19 37c-9.4 0-17-7.6-17-17 0-9.4 7.6-17 17-17 9.4 0 17 7.6 17 17 0 9.4-7.6 17-17 17zm0-32.4c-8.5 0-15.4 6.9-15.4 15.4 0 8.5 6.9 15.4 15.4 15.4 8.5 0 15.4-6.9 15.4-15.4 0-8.5-6.9-15.4-15.4-15.4z"/>
	</g>
</svg>