<svg version="1.2" xmlns="http://www.w3.org/2000/svg" viewBox="0 0 208 237" width="52" height="52">
	<title>cyberark-svg</title>
	<defs>
		<clipPath clipPathUnits="userSpaceOnUse" id="cp1">
			<path d="m-145 282.96h50.36v58.64h-50.36z"/>
		</clipPath>
		<clipPath clipPathUnits="userSpaceOnUse" id="cp2">
			<path d="m340.66 273.16h13.04v13.21h-13.04z"/>
		</clipPath>
	</defs>
	<style>
		.s0 { fill: #4c8ecb } 
		.s1 { fill: #2e73af } 
		.s2 { fill: #808184 } 
		.s3 { fill: #012c54 } 
		.s4 { fill: #58595b } 
		.s5 { fill: #1a1919 } 
	</style>
	<g id="Layer">
		<path id="Layer" class="s0" d="m104.3 0v60.7l-49 28.8-51.9-30.3 100.9-59.2z"/>
		<path id="Layer" class="s1" d="m104.4 175.5l49.1-28.7 51.8-30.4v60.7l-100.8 59.1z"/>
		<path id="Layer" class="s1" d="m104.3 0l100.9 59-51.8 30.4-49.1-28.7z"/>
		<path id="Layer" class="s0" d="m3.5 177.2l51.8-30.4 49.1 28.7 0.1 60.7z"/>
		<path id="Layer" class="s1" d="m3.4 59.2l51.9 30.3v57.3l-51.8 30.4z"/>
		<path id="Layer" class="s2" d="m104.3 118.1v-57.4l49.1 28.7v57.4z"/>
		<path id="Layer" class="s3" d="m153.4 146.8z"/>
		<path id="Layer" class="s4" d="m55.3 89.5l49-28.8v57.4l-49 28.7z"/>
		<g id="Layer">
			<g id="Layer">
				<g id="Clip-Path" clip-path="url(#cp1)">
					<path id="Layer" fill-rule="evenodd" class="s5" d="m-94.6 333.2c-5.8 5.7-13.2 8.4-21 8.4-20.2 0-29.3-14.1-29.4-29-0.1-14.9 9.5-29.6 29.4-29.6 7.5 0 14.7 2.8 20.4 8.5l-6 5.8c-4-3.9-9.2-5.8-14.4-5.8-14.2 0-20.6 10.6-20.6 21 0.1 10.4 6.2 20.6 20.6 20.6 5.2 0 10.9-2.2 14.8-6.1z"/>
				</g>
			</g>
			<path id="Layer" class="s5" d="m-66.4 340.5v-23.2l-21.5-33v-0.4h10.6l15.4 25 15.8-25h10.8v0.4l-22.1 33v23.2z"/>
			<path id="Layer" fill-rule="evenodd" class="s5" d="m2.1 283.9c10.6 0 18.9 4.9 18.9 16.2 0 4.7-2.4 9-7.7 11.2 6.7 2 9.5 8.7 9.5 13 0 12.4-9.7 16.2-20.7 16.2h-25.6v-56.6zm-16.7 23.4h16.8c6.7 0 10-2.6 10-7.1 0-3.9-3.4-8.1-10.1-8.1h-16.7zm0 24.7h16.7c4.9 0 11.8-1.6 11.8-7.8 0-6.1-6.6-8.8-11.7-8.8h-16.8z"/>
			<path id="Layer" class="s5" d="m78.7 340.5h-41.2v-56.6h41v8.8h-32.1v15.3h30.8v8.4h-30.8v15.2h32.3z"/>
			<path id="Layer" fill-rule="evenodd" class="s5" d="m142.3 340.5h-10.5l-16.9-19.6h-11.8v19.6h-8.9v-56.7c8.6 0 17.3 0.1 25.9 0.1 12.9 0 19.7 9 19.7 18.5 0 8.1-4.1 16-15.1 17.6l16.6 18.8zm-39.2-48.3v20.6h17c7.4 0 10.7-4.8 10.7-10.1 0-5.1-3.3-10.5-10.6-10.5z"/>
			<path id="Layer" fill-rule="evenodd" class="s1" d="m192.7 331.2h-24.9l-3.7 9.3h-16.7l25-56.6h15.9l25 56.6h-16.9zm-12.5-31.5l-7.1 18.1h14.2zm93.1 40.7h-17.4l-13-18.4h-5.5v18.4h-15.7v-56.6h27.2c14.3 0 21.7 9.3 21.7 19.5 0 6.9-2.4 12.8-11.8 17l14.5 19.1zm-35.9-43.8v13.6h11.7c4.1 0 5.9-3.2 5.9-6.6 0-3.5-2-7-6.1-7zm96.2-11.8l-22.6 26.8c7.8 8.7 16.8 18.9 24.6 27.8v1h-19.6l-15.9-18.8v18.8h-15.8v-56.5h15.8v18.5c4.8-6 10-12.6 14.7-18.5h18.8z"/>
			<g id="Layer">
				<g id="Clip-Path" clip-path="url(#cp2)">
					<path id="Layer" fill-rule="evenodd" class="s1" d="m347.2 286.4c-3.6 0-6.5-2.9-6.5-6.6 0-3.8 2.9-6.6 6.5-6.6 3.5 0 6.5 2.8 6.5 6.6 0 3.7-3 6.6-6.5 6.6zm0-12.3c-3 0-5.4 2.5-5.4 5.7 0 3.2 2.4 5.6 5.4 5.6 3 0 5.3-2.4 5.3-5.6 0-3.2-2.3-5.7-5.3-5.7zm2.4 9.3h-0.7l-0.3-0.1c-0.2-0.3-0.3-0.6-0.5-1-0.5-0.8-0.8-1.3-1.3-1.8-0.1-0.1-0.2-0.2-0.4-0.2h-0.2v2.7c0 0.2-0.2 0.4-0.4 0.4h-0.4c-0.2 0-0.4-0.2-0.4-0.4v-6.6c0-0.2 0.2-0.3 0.4-0.3h1.8c1.7 0 2.5 0.9 2.5 2 0 1-0.6 2-1.9 2 0.3 0.2 1.1 1.3 2 2.9 0.1 0.2 0 0.4-0.2 0.4zm-2.7-6.4h-0.7v2.3h0.7c1.2 0 1.6-0.3 1.6-1.2 0-0.8-0.6-1.1-1.6-1.1z"/>
				</g>
			</g>
		</g>
	</g>
</svg>