<svg version="1.2" xmlns="http://www.w3.org/2000/svg" viewBox="0 0 239 136" width="52" height="52">
	<title>docker-moby-logo-sAMSSLCB_brandlogos</title>
	<style>
		.s0 { fill: #384d54 } 
		.s1 { fill: #00a8d9 } 
		.s2 { fill: #29b8eb } 
		.s3 { fill: #038ab8 } 
		.s4 { fill: #0099c4 } 
		.s5 { fill: #00abd1 } 
		.s6 { fill: #21c2ed } 
		.s7 { fill: #d4edf0 } 
		.s8 { fill: #bfdbe0 } 
	</style>
	<path id="Layer" class="s0" d="m137.9 42.6h21.4v21.8h10.7q1.9 0 3.8-0.1 1.9-0.2 3.8-0.5 1.8-0.3 3.6-0.8 1.9-0.5 3.7-1.1 0.9-0.3 1.9-0.7 0.9-0.3 1.8-0.7 0.9-0.4 1.8-0.9 0.9-0.4 1.8-0.9-1.1-1.5-2-3.2-0.9-1.6-1.5-3.4-0.7-1.7-1.1-3.6-0.4-1.8-0.5-3.7c-0.6-6.7 0.8-15.3 5.3-20.6l2.2-2.5 2.7 2.1c6.7 5.4 12.5 13.1 13.4 21.7 8.2-2.4 17.8-2 24.8 2.2l3 1.8-1.6 3c-6.1 11.8-18.7 15.4-31.1 14.8-18.6 46-58.8 67.8-107.6 67.8-25.3 0-48.6-9.4-61.7-31.7l-0.3-0.5-1.9-3.8q-1.6-3.7-2.8-7.6-1.1-3.9-1.7-7.8-0.6-4-0.7-8.1-0.1-4 0.4-8l0.2-3.2h18.4v-21.8h21.3v-21.4h42.8v-21.2h25.8z"/>
	<path id="Layer" class="s1" d="m233.7 50.9c-5.5 10.7-17.6 13.9-30.2 12.6-17.9 47.1-58.1 68.2-105.4 68.2-22.3 0-40.2-7.7-51.7-20.6h0.2c3.2 0.1 6.2 0.1 9.1 0.1 2.9 0 5.4 0 8-0.1h1.1q2-0.2 3.9-0.4 2-0.2 4-0.5 1.9-0.3 3.9-0.8 1.9-0.4 3.8-0.9 0.3-0.1 0.6-0.2 0.3-0.1 0.6-0.2 0.3-0.1 0.6-0.2 0.3-0.1 0.6-0.2 0.4-0.1 0.6-0.3 0.3-0.2 0.4-0.5 0.2-0.3 0.2-0.6 0-0.4-0.2-0.7 0-0.3-0.2-0.6-0.2-0.3-0.5-0.4-0.3-0.2-0.7-0.2-0.3 0-0.6 0.1c-5.8 2.1-13.5 3.2-22.7 3.4-4.8 0.1-9.9 0-15.7-0.4q-0.4-0.6-0.8-1.2-0.4-0.6-0.8-1.2-0.4-0.6-0.8-1.2-0.4-0.7-0.7-1.3l-1.7-2.9q-1.8-3.6-3-7.5-1.3-3.9-2-7.9-0.7-4.1-0.9-8.2-0.1-4 0.3-8.1h137c11.4 0 22.4-4.2 27.5-8.8-9.2-7.7-8.3-25.7-2.4-32.6 5.2 4.2 13.6 13 12.2 24 6.3-3.2 17.7-4.8 26.4 0.3z"/>
	<path id="Layer" class="s2" d="m207.4 50.5q0.1 0 0.2 0 0.1-0.1 0.2-0.1 0.1-0.1 0.2-0.1c-19.5 25-47.4 47.1-77.6 58.5-26.8 10.4-50.1 10.4-66.3 2.1l0.2 0.2q2-0.1 4.1-0.3 2-0.2 4-0.5 2.1-0.4 4.1-0.8 1.9-0.4 3.9-1 0.3-0.1 0.6-0.2 0.3-0.1 0.6-0.2 0.3-0.1 0.6-0.2 0.3-0.1 0.6-0.2 0.3-0.1 0.6-0.3 0.2-0.2 0.4-0.5 0.1-0.3 0.1-0.6 0-0.3-0.1-0.6 0-0.4-0.2-0.7-0.2-0.2-0.6-0.4-0.3-0.2-0.6-0.2-0.3 0-0.7 0.1c-5.7 2.1-13.4 3.2-22.6 3.4-11.8-8.3-18.6-21.9-17.9-39.9h128.8c11.4 0 22.4-4.2 27.5-8.8-9.3-7.7-8.3-25.7-2.4-32.6 5.1 4.2 13.6 13 12.1 24q0.1 0 0.2-0.1z"/>
	<path id="Layer" class="s3" d="m194.4 82.2c-20.4 34-55.7 49.5-96.2 49.5-22.4 0-40.4-7.9-51.9-20.6 3.3 0.1 6.4 0.1 9.4 0.1 2.7 0 5.4 0 7.8-0.1h0.8q2.1-0.1 4.1-0.3 2-0.2 4.1-0.6 2-0.3 4-0.7 2-0.4 3.9-1 0.3-0.1 0.6-0.2 0.3-0.1 0.6-0.2 0.3-0.1 0.6-0.2 0.3-0.1 0.6-0.2 0.4-0.1 0.6-0.3 0.3-0.2 0.4-0.5 0.2-0.3 0.2-0.6 0-0.4-0.2-0.7 0-0.3-0.2-0.6-0.2-0.3-0.5-0.4-0.3-0.2-0.7-0.2-0.3 0-0.6 0.1c-5.8 2.1-13.5 3.2-22.7 3.4-4.8 0.1-9.9 0-15.7-0.4q-0.4-0.6-0.8-1.2-0.4-0.6-0.8-1.2-0.4-0.6-0.8-1.2-0.4-0.7-0.8-1.3l-1.5-2.9q-1.1-2-1.9-4.2-0.9-2.1-1.6-4.3-0.6-2.2-1.1-4.5-0.5-2.2-0.9-4.5z"/>
	<path id="Layer" class="s4" d="m176.2 82.2q-5.1 4.2-10.6 8-5.5 3.8-11.2 7.1-5.8 3.3-11.8 6.2-6 2.9-12.2 5.3c-26.8 10.4-50.1 10.6-66.3 2.3q2.1-0.1 4.2-0.3 2-0.2 4.1-0.5 2-0.4 4-0.8 2-0.4 4-1 0.3-0.1 0.6-0.2 0.3-0.1 0.6-0.2 0.3-0.1 0.6-0.2 0.3-0.1 0.6-0.2 0.3-0.1 0.6-0.3 0.2-0.2 0.4-0.5 0.1-0.3 0.1-0.6 0-0.3-0.1-0.7 0-0.3-0.2-0.6-0.2-0.2-0.6-0.4-0.3-0.2-0.6-0.2-0.3 0-0.7 0.1c-5.7 2.1-13.4 3.2-22.6 3.4q-3.3-2.3-6-5.1-2.8-2.8-4.9-6.1-2.2-3.3-3.6-7-1.5-3.6-2.3-7.5z"/>
	<path id="Layer" fill-rule="evenodd" class="s5" d="m51.6 46.1h18.5v18.5h-18.5zm1.6 16.9h1.4v-15.3h-1.4zm2.7 0h1.6v-15.3h-1.6zm2.8 0h1.5v-15.3h-1.4zm2.7 0h1.6v-15.4h-1.6zm2.9 0h1.4v-15.3h-1.4zm2.7 0h1.6v-15.3h-1.6z"/>
	<path id="Layer" fill-rule="evenodd" class="s5" d="m73 24.7h18.5v18.5h-18.5zm1.6 17.1h1.4v-15.5h-1.4zm2.7 0h1.6v-15.4h-1.6zm2.9 0h1.4v-15.5h-1.4zm2.7 0h1.6v-15.5h-1.6zm2.9 0h1.4v-15.5h-1.4zm2.7 0h1.6v-15.5h-1.6z"/>
	<path id="Layer" fill-rule="evenodd" class="s6" d="m73 46.1h18.5v18.5h-18.5zm1.6 16.9h1.4v-15.3h-1.4zm2.7 0h1.6v-15.3h-1.6zm2.9 0h1.4v-15.3h-1.4zm2.7 0h1.6v-15.4h-1.6zm2.9 0h1.4v-15.3h-1.4zm2.7 0h1.6v-15.3h-1.6z"/>
	<path id="Layer" fill-rule="evenodd" class="s5" d="m94.4 46.1h18.5v18.5h-18.5zm1.5 16.9h1.5v-15.3h-1.4zm2.7 0h1.6v-15.3h-1.6zm2.9 0h1.4v-15.3h-1.4zm2.7 0h1.6v-15.4h-1.6zm2.9 0h1.4v-15.3h-1.4zm2.7 0h1.6v-15.3h-1.6z"/>
	<path id="Layer" fill-rule="evenodd" class="s6" d="m94.4 24.7h18.5v18.5h-18.5zm1.5 17.1h1.5v-15.5h-1.4zm2.7 0h1.6v-15.4h-1.6zm2.9 0h1.4v-15.5h-1.4zm2.7 0h1.6v-15.5h-1.6zm2.9 0h1.4v-15.5h-1.4zm2.7 0h1.6v-15.5h-1.6z"/>
	<path id="Layer" fill-rule="evenodd" class="s6" d="m115.7 46.1h18.5v18.5h-18.5zm1.6 16.9h1.5v-15.3h-1.5zm2.8 0h1.6v-15.3h-1.6zm2.8 0h1.5v-15.3h-1.5zm2.7 0h1.6v-15.4h-1.5zm2.8 0h1.5v-15.3h-1.5zm2.8 0h1.5v-15.3h-1.6z"/>
	<path id="Layer" fill-rule="evenodd" class="s5" d="m115.7 24.7h18.5v18.5h-18.5zm1.6 17.1h1.5v-15.5h-1.5zm2.8 0h1.6v-15.4h-1.6zm2.8 0h1.5v-15.5h-1.5zm2.7 0h1.6v-15.5h-1.5zm2.8 0h1.5v-15.5h-1.5zm2.8 0h1.5v-15.5h-1.6z"/>
	<path id="Layer" fill-rule="evenodd" class="s6" d="m115.7 3.3h18.5v18.6h-18.5zm1.6 17h1.5v-15.4h-1.5zm2.8 0h1.6v-15.5h-1.6zm2.8 0h1.5v-15.5h-1.5zm2.7 0h1.6v-15.5h-1.5zm2.8 0h1.5v-15.5h-1.5zm2.8 0h1.5v-15.4h-1.6z"/>
	<path id="Layer" fill-rule="evenodd" class="s5" d="m137.1 46.1h18.5v18.5h-18.5zm1.6 16.9h1.5v-15.3h-1.5zm2.8 0h1.4v-15.3h-1.4zm2.8 0h1.5v-15.3h-1.5zm2.8 0h1.6v-15.4h-1.6zm2.8 0h1.5v-15.3h-1.5zm2.8 0h1.4v-15.3h-1.4z"/>
	<path id="Layer" class="s7" d="m90.4 94.6q1 0 1.9 0.4 0.9 0.4 1.7 1.1 0.7 0.8 1.1 1.7 0.4 0.9 0.4 1.9c0 1.4-0.6 2.7-1.5 3.7-1 0.9-2.3 1.5-3.6 1.5-1.4 0-2.7-0.6-3.7-1.5-0.9-1-1.5-2.3-1.5-3.7q0.1-1 0.4-1.9 0.4-0.9 1.2-1.7 0.7-0.7 1.6-1.1 0.9-0.4 2-0.4z"/>
	<path id="Layer" class="s0" d="m90.4 96.1q0.1 0 0.3 0 0.2 0 0.3 0.1 0.2 0 0.3 0.1 0.2 0 0.3 0.1-0.1 0.1-0.2 0.3-0.1 0.1-0.2 0.3-0.1 0.1-0.1 0.3-0.1 0.2-0.1 0.4 0 0.3 0.1 0.6 0.1 0.2 0.3 0.5 0.2 0.2 0.5 0.3 0.2 0.1 0.5 0.2 0.2 0 0.4-0.1 0.2 0 0.4-0.1 0.2-0.1 0.3-0.3 0.1-0.1 0.2-0.3 0.1 0.1 0.2 0.3 0 0.1 0.1 0.3 0 0.2 0 0.3 0 0.2 0 0.4c0 0.9-0.4 1.9-1 2.5-0.7 0.7-1.7 1.1-2.6 1.1-1 0-1.9-0.4-2.6-1.1-0.7-0.6-1.1-1.6-1.1-2.5q0-0.8 0.3-1.4 0.3-0.7 0.8-1.2 0.5-0.5 1.2-0.8 0.6-0.3 1.4-0.3z"/>
	<path id="Layer" class="s0" d="m14.5 74.2c9.4 10.9 32.1 7.7 37.9 2.2 6.4 9.3 43.4 5.8 46.1-1.4 8 9.4 32.7 9.4 40.7 0 2.6 7.2 39.8 10.7 46.2 1.4 5.7 5.5 28.4 8.7 37.8-2.2-1.8 6.9 9.4 8.6 14.5 9.9h-237.7c5.1-1.3 16.2-3 14.5-9.9z"/>
	<path id="Layer" class="s8" d="m98.2 131.6c-26.5-0.1-40.7-9.1-52.4-20.7 3.5 0.2 6.7 0.3 9.9 0.3 2.7 0 5.5-0.1 7.8-0.1q2.2-0.2 4.3-0.4 2.1-0.2 4.3-0.5 2.1-0.3 4.2-0.8 2.1-0.4 4.2-0.9c3.8 8.8 10.8 17.1 23.4 23-1.9 0.2-3.8 0.2-5.7 0.1z"/>
	<path id="Layer" class="s7" d="m63.5 111.1q2.2-0.1 4.3-0.4 2.1-0.2 4.3-0.5 2.1-0.3 4.2-0.7 2.1-0.5 4.2-1 0.5 1.1 1 2.1 0.6 1.1 1.2 2.1 0.6 1 1.2 2 0.7 1 1.4 2c-10.7-1-17.3-3.2-21.8-5.6z"/>
</svg>