<svg version="1.2" xmlns="http://www.w3.org/2000/svg" viewBox="0 0 256 256" width="52" height="52">
	<title>elasticsearch-svg</title>
	<style>
		.s0 { fill: #ffffff } 
		.s1 { fill: #f4bd19 } 
		.s2 { fill: #3cbeb1 } 
		.s3 { fill: #e9478c } 
		.s4 { fill: #2c458f } 
		.s5 { fill: #95c63d } 
		.s6 { fill: #176655 } 
	</style>
	<path id="Layer" class="s0" d="m222.5 182c1.5 4.2 2.3 8.8 2.3 13.4 0 21.3-17.3 38.5-38.4 38.5-8.6 0-16.9-3-23.6-8.2-13.6 18.8-35.1 30.1-58.5 30.1-39.7 0-72.1-32.4-72.1-72.1q0-7.2 1.2-13.8c-20-7.3-33.4-26.1-33.4-47.6 0-21.3 13.6-40.6 33.6-47.5-1.4-4.1-2.3-8.7-2.3-13.3 0-21.3 17.4-38.5 38.5-38.5 8.6 0 16.7 2.7 23.4 8 13.6-19 35.3-30.1 58.5-30.1 39.9 0 72.3 32.4 72.3 72.3q0 1.7-0.1 3.4-0.1 1.8-0.2 3.5-0.2 1.7-0.4 3.4-0.2 1.8-0.6 3.5c19.9 7.3 33.3 25.9 33.3 47.4 0 21.3-13.8 40.5-33.5 47.6z"/>
	<path id="Layer" class="s1" d="m89 86.5l9.6-49.7c11.9-17.5 31.8-28 53.1-28 35.5 0 64.3 28.9 64.3 64.4q0.1 1.6 0 3.2-0.1 1.6-0.3 3.2-0.1 1.6-0.4 3.2-0.2 1.5-0.5 3.1l-57.7 50.6-57-26.1c0 0-11.1-23.9-11.1-23.9z"/>
	<path id="Layer" class="s2" d="m97.2 120l57.2 26.1 12.8 24.2-9.4 49.8c-12.2 17.5-32 28.2-53.5 28.2-35.6 0-64.6-29.1-64.6-64.6 0-4.4 0.4-8.8 1.3-13z"/>
	<path id="Layer" class="s3" d="m38.7 61.3c0-17.2 14-31 30.9-31 6.9 0 13.4 2.1 18.8 6.3l-8.8 44.5-39.1-9.2c-1.2-3.3-1.8-7.1-1.8-10.6z"/>
	<path id="Layer" class="s4" d="m80.2 91.4l10.1 21.5-55 49.7c-16.7-6.3-27.8-22.4-27.8-40.3 0-18.4 12.1-35.3 29.7-41 0 0 43 10.1 43 10.1z"/>
	<path id="Layer" class="s5" d="m176.4 175.6l39 9.1q1.9 5.1 1.9 10.7c0 17.1-14 30.9-30.9 30.9-6.7 0-13.2-2.3-18.6-6.4z"/>
	<path id="Layer" class="s6" d="m164.2 143.4l56.4-49.3c16.8 6.4 27.8 22.3 27.8 40.3 0 18.4-12.1 35.1-29.6 40.9l-43.1-10c0 0-11.5-21.9-11.5-21.9z"/>
</svg>