<svg version="1.2" xmlns="http://www.w3.org/2000/svg" viewBox="0 0 2386 1920" width="52" height="52">
	<title>gcp-svg</title>
	<style>
		.s0 { fill: #ea4335 } 
		.s1 { fill: #4285f4 } 
		.s2 { fill: #34a853 } 
		.s3 { fill: #fbbc05 } 
	</style>
	<g id="Layer">
		<path id="Layer" class="s0" d="m1515.3 528.7c-213-172.4-523.5-148.8-708 53.8-10.9-2.2-32 32.7-32 32.7l-414.7 68.4c-24.1-6.6-49.7-5.1-72.8 4.4 37.4-138 106.1-265.5 200.8-372.7 340.6-385.9 929.7-422.6 1315.6-82l-10.2 88-207.4 207.4h-72.8z"/>
		<path id="Layer" class="s1" d="m2355.4 1446.1c-88.2 283.6-351.7 476.1-648.7 473.8h-518.1l-51.7-51.7v-310.7l51.7-52.4h518.1c143 0 259-115.9 259-259 0-143-115.9-259-259-259v-51.7c3-158.7-67-310-189.9-410.4l291-291c136.1 120.7 233.9 278.5 281.6 454 246 166.4 354 474.4 266 758.1z"/>
		<path id="Layer" class="s2" d="m263 1781.7l18.2-72.8 208.8-207.4 72.8-22.5c33.6 15.4 70.1 23.3 107 23.3h518.1v414.7h-518.1c-146.8 0.6-289.7-46.9-406.8-135.3z"/>
		<path id="Layer" class="s3" d="m1206.8 835.7l-300.5 300.5c-26-57.4-72-103.4-129.4-129.4-130.4-58.9-283.8-1-342.7 129.4-58.9 130.4-1 283.8 129.4 342.7l-300.5 300.5c-228.1-175.4-319.6-476.4-227.8-749.1 91.8-272.7 346.7-457 634.5-458.7 210.4-0.7 409.1 97 537 264.1z"/>
	</g>
</svg>