<svg version="1.2" xmlns="http://www.w3.org/2000/svg" viewBox="0 0 256 256" width="52" height="52">
	<title>git-icon-svg</title>
	<style>
		.s0 { fill: #de4c36 } 
	</style>
	<path id="Layer" class="s0" d="m251.2 139.9l-111.3 111.3c-6.4 6.4-16.9 6.4-23.3 0l-111.8-111.8c-6.4-6.4-6.4-16.9 0-23.3l76.7-76.7 29 29.1c-3 7.1-1.6 15.6 4.2 21.4q0.7 0.7 1.5 1.3 0.7 0.6 1.5 1.2 0.8 0.5 1.7 1 0.8 0.4 1.7 0.8v70.3q-0.9 0.4-1.7 0.8-0.9 0.5-1.7 1-0.8 0.5-1.5 1.2-0.8 0.6-1.5 1.3c-7.6 7.6-7.6 20 0 27.7 7.7 7.7 20.1 7.7 27.8 0 7.6-7.7 7.6-20.1 0-27.7q-0.6-0.6-1.2-1.1-0.6-0.5-1.3-1-0.6-0.5-1.3-0.9-0.7-0.4-1.4-0.7v-69.7l26.4 26.5c-2.9 7.1-1.5 15.5 4.3 21.3 7.7 7.7 20.1 7.7 27.8 0 7.6-7.7 7.6-20.1 0-27.7-5.5-5.5-13.4-7-20.3-4.7l-28.4-28.4c2.4-6.8 0.8-14.7-4.6-20.2-5.5-5.5-13.3-7-20.2-4.7l-29.4-29.5 23.2-23.2c6.4-6.4 16.9-6.4 23.3 0l111.8 111.8c6.4 6.4 6.4 16.9 0 23.3z"/>
</svg>