<svg version="1.2" xmlns="http://www.w3.org/2000/svg" viewBox="0 0 256 249" width="52" height="52">
	<title>github-svg</title>
	<style>
		.s0 { fill: #161614 } 
	</style>
	<g id="Layer">
		<path id="Layer" class="s0" d="m255 127.5c0 56.3-36.5 104.1-87.1 121-6.5 1.2-8.8-2.7-8.8-6.1 0-4.2 0.2-18 0.2-35 0-11.9-4.1-19.7-8.7-23.6 28.4-3.2 58.2-14 58.2-63 0-13.9-4.9-25.2-13.1-34.2 1.4-3.2 5.7-16.2-1.2-33.7 0 0-10.7-3.4-35.1 13-10.1-2.8-21.1-4.2-31.9-4.2-10.8 0-21.7 1.4-31.9 4.2-24.4-16.4-35.1-13-35.1-13-6.9 17.5-2.5 30.5-1.2 33.7-8.2 9-13.2 20.3-13.2 34.2 0 48.9 29.8 59.8 58.1 63.1-3.6 3.1-6.9 8.8-8.1 17-7.2 3.3-25.7 8.9-37.1-10.6 0 0-6.7-12.2-19.5-13.1 0 0-12.4-0.2-0.9 7.7 0 0 8.4 3.9 14.2 18.7 0 0 7.5 22.7 42.9 15 0.1 10.7 0.2 20.7 0.2 23.8 0 3.3-2.3 7.3-8.7 6.1-50.7-16.9-87.2-64.7-87.2-121 0-70.4 57.1-127.5 127.5-127.5 70.4 0 127.5 57.1 127.5 127.5z"/>
		<path id="Layer" class="s0" d="m47.8 181.6c-0.3 0.7-1.3 0.9-2.2 0.4-1-0.4-1.5-1.3-1.2-1.9 0.3-0.6 1.3-0.8 2.2-0.4 0.9 0.4 1.5 1.3 1.2 1.9zm6.2 5.6c-0.6 0.6-1.8 0.3-2.6-0.6-0.8-0.8-1-2-0.3-2.6 0.6-0.6 1.7-0.3 2.6 0.6 0.8 0.9 1 2.1 0.3 2.6zm4.3 7.2c-0.8 0.5-2 0-2.8-1.1-0.8-1.1-0.8-2.5 0-3 0.8-0.6 2-0.1 2.8 1 0.8 1.2 0.8 2.5 0 3.1zm7.3 8.3c-0.7 0.8-2.2 0.5-3.3-0.5-1.1-1-1.4-2.5-0.7-3.3 0.7-0.7 2.2-0.5 3.3 0.5 1.1 1.1 1.5 2.5 0.7 3.3zm9.4 2.8c-0.3 1-1.7 1.4-3.2 1-1.4-0.4-2.4-1.6-2.1-2.6 0.3-1 1.8-1.5 3.2-1 1.5 0.4 2.4 1.6 2.1 2.6zm10.7 1.2c0.1 1-1.2 1.9-2.7 1.9-1.5 0-2.7-0.8-2.8-1.8 0-1.1 1.2-2 2.8-2 1.5 0 2.7 0.8 2.7 1.9zm10.5-0.4c0.2 1-0.8 2-2.3 2.3-1.5 0.3-2.9-0.3-3.1-1.4-0.2-1 0.9-2.1 2.4-2.3 1.5-0.3 2.8 0.3 3 1.4z"/>
	</g>
</svg>