<svg version="1.2" xmlns="http://www.w3.org/2000/svg" viewBox="0 0 256 236" width="52" height="52">
	<title>gitlab-svg</title>
	<style>
		.s0 { fill: #e24329 } 
		.s1 { fill: #fc6d26 } 
		.s2 { fill: #fca326 } 
	</style>
	<path id="Layer" class="s0" d="m81 91.1h94.2l-47.1 145c0 0-47.1-145-47.1-145z"/>
	<path id="Layer" class="s1" d="m15 91.1h66l47.1 145z"/>
	<path id="Layer" class="s2" d="m128.1 236.1l-123.9-90q-1.3-0.9-2.2-2.2-0.9-1.2-1.4-2.7-0.4-1.5-0.4-3 0-1.6 0.4-3l14.4-44.1c0 0 113.1 145 113.1 145z"/>
	<path id="Layer" class="s0" d="m43.3 3.8c1.5-4.5 7.8-4.5 9.3 0l28.4 87.3h-66z"/>
	<path id="Layer" class="s1" d="m128.1 236.1l47.1-145h66c0 0-113.1 145-113.1 145z"/>
	<path id="Layer" class="s2" d="m241.2 91.1l14.3 44.1q0.5 1.4 0.5 3 0 1.5-0.5 3-0.5 1.5-1.4 2.7-0.9 1.3-2.1 2.2l-123.9 90c0 0 113.1-145 113.1-145z"/>
	<path id="Layer" class="s0" d="m241.2 91.1h-66l28.3-87.3c1.5-4.5 7.9-4.5 9.3 0z"/>
</svg>