<svg version="1.2" xmlns="http://www.w3.org/2000/svg" viewBox="0 0 335 363" width="52" height="52">
	<title>grafana-svg</title>
	<defs>
		<linearGradient id="g1" x1="167.5" y1="107.9" x2="167.5" y2="358.4" gradientUnits="userSpaceOnUse">
			<stop offset="0" stop-color="#f05a28"/>
			<stop offset="1" stop-color="#fbca0a"/>
		</linearGradient>
	</defs>
	<style>
		.s0 { fill: url(#g1) } 
	</style>
	<path id="Layer" class="s0" d="m334.5 173c0 1.5-1.1 2.7-2.6 2.8-1.4 0.2-2.7-0.7-3-2.1-0.9-3.4-2-7.3-3.5-11.7-0.9-2.7-2.1-5.6-3.3-8.6-0.3-0.8-0.7-1.5-1-2.3-0.4-0.8-0.7-1.5-1.1-2.3-0.3-0.8-0.7-1.6-1.1-2.4l-0.6-1.2-0.6-1.2c-3.3-6.4-7.5-13.2-12.7-19.9-2.6-3.4-5.5-6.7-8.6-10-0.8-0.9-1.6-1.7-2.4-2.5-0.8-0.8-1.6-1.6-2.5-2.4-0.9-0.8-1.7-1.6-2.6-2.4-0.4-0.4-0.9-0.8-1.3-1.2-0.5-0.4-0.9-0.8-1.4-1.2-7.4-6.2-15.8-11.9-25.3-16.5-9.5-4.7-19.9-8.2-31-10.3-5.5-1-11.2-1.7-17-1.9-2.9-0.1-5.9-0.1-8.8 0-0.7 0-1.5 0.1-2.2 0.1h-1l-1.3 0.1c-0.9 0.1-1.7 0.1-2.6 0.2h-0.6l-0.5 0.1-1.1 0.1c-0.5 0.1-1.1 0.1-1.6 0.2-0.7 0.1-1.9 0.2-2.6 0.3-0.9 0.1-1.7 0.2-2.6 0.3-0.8 0.1-1.5 0.2-2.3 0.3l-1.2 0.2-1.1 0.2c-0.8 0.1-1.5 0.3-2.3 0.4-0.8 0.2-1.5 0.3-2.3 0.5-0.8 0.2-1.6 0.3-2.3 0.5-1.5 0.3-3 0.7-4.5 1.1-0.7 0.2-1.5 0.4-2.2 0.6-0.7 0.3-1.5 0.5-2.2 0.7-3 0.9-5.9 1.9-8.7 3.1l-2.1 0.9-2.1 0.9c-1.4 0.6-2.8 1.3-4.1 2-2.7 1.4-5.4 2.9-7.9 4.6q-3.9 2.6-7.5 5.4c-2.4 2-4.7 4-6.9 6.2-8.9 8.7-16.3 19.6-22 31.8-2.8 6.1-5.2 12.6-7.1 19.3-1 3.4-1.8 6.8-2.5 10.2-0.7 3.4-1.3 6.9-1.7 10.3-0.4 3.4-0.7 6.9-0.8 10.2v2.5 0.7 5.7l0.1 1.3c0.5 6.8 1.6 13.5 3.4 20.1 1.8 6.5 4.3 13 7.4 19.1 3.1 6.1 6.9 12 11.2 17.4 8.6 10.9 19.7 19.9 32 26.5 6.2 3.2 12.7 5.9 19.4 7.8 6.8 1.9 13.7 3.2 20.7 3.7 1.8 0.2 3.5 0.3 5.3 0.3h5c3.3-0.1 6.6-0.4 9.8-1 6.5-1 12.8-3 18.8-5.7 12-5.5 22.5-14.1 30.2-24.7 3.8-5.3 7-11.1 9.4-17.1q1.8-4.7 3-9.3c0.4-1.5 0.8-3.1 1.1-4.7 0.3-1.6 0.6-3.2 0.8-4.8 0.2-1.6 0.4-3.3 0.5-4.9 0-0.7 0.1-1.9 0.1-2.6v-4.3l-0.1-1.1-0.1-1.1c-0.1-1.5-0.3-3-0.5-4.5-0.9-5.9-2.8-11.6-5.5-16.9-5.3-10.6-14-19.4-24.2-25.1-5.1-2.8-10.6-4.9-16.2-6.1-2.8-0.7-5.6-1.1-8.5-1.3l-1.1-0.1h-3.1c-1.4 0-2.7 0.1-4 0.2-2.7 0.3-5.3 0.7-7.8 1.4-2.6 0.7-5 1.6-7.4 2.7-2.4 1.1-4.7 2.4-6.8 3.9-2.1 1.5-4.1 3.1-6 4.9-7.4 7.1-12.2 16.5-13.9 26.1-0.2 1.2-0.4 2.4-0.5 3.6 0 0.3-0.1 0.6-0.1 0.9v0.8c0 0.6-0.1 1.2-0.1 1.8-0.1 2.2 0.1 4.5 0.4 6.7 0.7 4.4 2.2 8.6 4.3 12.4 2.1 3.8 4.8 7.1 7.9 9.9 3.1 2.8 6.5 5 10.1 6.6 3.5 1.6 7.2 2.7 10.9 3.2 0.5 0.1 0.9 0.1 1.4 0.2 0.2 0.1 0.5 0.1 0.7 0.1h0.6c0.5 0.1 1 0.1 1.5 0.1h2.4c0.5 0 0.9-0.1 1.3-0.1 0.9-0.1 1.7-0.2 2.5-0.3 1.6-0.3 3.2-0.7 4.7-1.2 1.5-0.5 2.9-1.1 4.3-1.8l1.2-0.6c1.6-0.9 3.6-0.5 4.7 0.9 1.3 1.6 1 4-0.6 5.3-0.4 0.4-0.9 0.7-1.3 1-1.6 1-3.2 2.1-5 3-1.7 0.9-3.7 1.7-5.7 2.4-1 0.3-2 0.7-3.1 0.9-0.5 0.2-1 0.3-1.6 0.4-0.6 0.1-1.1 0.2-1.7 0.3-0.3 0-0.6 0.1-0.9 0.1l-0.5 0.1c-0.1 0.1-0.3 0.1-0.4 0.1-0.5 0-1 0.1-1.5 0.1-0.3 0.1-0.6 0.1-0.9 0.1h-2.6c-4.7 0-9.7-0.6-14.7-2.1-5-1.5-10.1-3.8-14.8-7-4.7-3.3-9.2-7.4-12.9-12.4-3.7-5-6.7-10.9-8.6-17.4-0.9-3.2-1.6-6.6-1.9-10.1-0.1-0.8-0.1-1.7-0.2-2.5l-0.1-1.4v-1.3c0-1.7 0-3.5 0.1-5.2 0.4-6.9 1.9-14.1 4.6-21 2.7-6.9 6.6-13.6 11.6-19.6 5-6 11.2-11.3 18.3-15.6 7.1-4.3 15.2-7.4 23.8-9 2.1-0.4 4.3-0.7 6.5-0.9 0.5 0 1.1-0.1 1.7-0.1l1.6-0.1h3.2c4.3-0.1 8.6 0.1 12.9 0.7 8.6 1.1 17.2 3.5 25.5 7.2 8.2 3.7 16.1 8.7 23.1 14.9 7.1 6.2 13.3 13.5 18.3 21.8 4.9 8.3 8.7 17.5 11 27.2 0.6 2.5 1 4.9 1.4 7.4l0.3 1.9 0.2 1.9c0.1 0.6 0.1 1.3 0.2 1.9 0.1 0.6 0.2 1.2 0.2 1.9l0.1 2 0.1 1.5v0.6 3.2c0 2.4 0 4.9-0.2 7.3-0.1 1.4-0.2 2.7-0.3 4.1 0.2 0.1 0.4 0.2 0.5 0.3 0 0 0 0.1 0.2 0.2 0.2 0.1-2.4-1.9 0.3 0.2 2.7 2.1 15.5 13.1 19.1 35.6 0 0-15.3 14.6-36.9 13.4l-1.5 2.4c-5.6 8.5-12.3 16.4-19.9 23.3-3.6 3.3-7.4 6.3-11.4 9.1v0.9 0.6 0.3c0 4.3-1.1 24.3-20.2 44.4 0 0-26.8-3.1-42.1-24.9v-0.1l-1.6 0.1h-3.6c-2.5 0.1-5.1 0-7.6-0.1-10.2-0.4-20.4-1.9-30.4-4.5-3.3-0.8-6.6-1.8-9.8-2.9-4.5 3.5-25.8 18.9-58.2 17.7 0 0-12.1-25.2-1.5-55.6-2.6-2.7-5-5.4-7.4-8.3-5.6-6.9-10.6-14.2-14.9-21.9l-0.1 0.1c0 0-34-2.1-63.1-35.6 0 0 10.3-35.3 45.3-52.6 0.1-1.4 0.3-2.8 0.5-4.2 1.3-9.7 3.4-19 6.2-28.1 0.8-2.5 1.6-5 2.5-7.5-3.6-4.6-21.8-29.9-18.7-70.1 0 0 33.5-17.3 71.3-2.9l1 0.4c3.7-2.5 7.5-4.9 11.4-7.1 4-2.2 8.1-4.2 12.2-6 2.1-0.9 4.1-1.7 6.2-2.5 2-0.8 4.1-1.6 6.2-2.2 1.5-0.4 3-0.9 4.5-1.3 0.2-0.9 0.3-1.4 0.3-1.4 0 0 5.1-24.2 32.4-41.5 0 0 24.4 11.4 32.9 38.6 0.7 0.1 1.3 0.2 2 0.3 3.8 0.6 7.5 1.3 11.2 2.2q5.5 1.3 10.8 3c3.6 1.1 7 2.4 10.3 3.7 0.8 0.3 1.5 0.7 2.3 1 4.6-3.3 17-10.6 36.5-9.4 0 0 11.3 17.6 6.2 37.9 3.4 3.3 6.6 6.7 9.5 10.2 7.4 8.9 13.1 18 17.5 26.8 4.4 8.8 7.4 17.3 9.4 25 2 7.8 3 14.8 3.6 20.9 0.5 4.9 0.6 9.2 0.5 12.8z"/>
</svg>