<svg version="1.2" xmlns="http://www.w3.org/2000/svg" viewBox="0 0 226 312" width="52" height="52">
	<title>Jenkins_logo-svg</title>
	<style>
		.s0 { fill: #d33833 } 
		.s1 { fill: #ef3d3a } 
		.s2 { fill: #231f20 } 
		.s3 { fill: #f0d6b7 } 
		.s4 { fill: #335061 } 
		.s5 { fill: #6d6b6d } 
		.s6 { fill: #dcd9d8 } 
		.s7 { fill: #f7e4cd } 
		.s8 { fill: #49728b } 
		.s9 { fill: #ffffff } 
		.s10 { fill: none;stroke: #d33833;stroke-width: 2.5 } 
		.s11 { fill: #81b0c4 } 
		.s12 { fill: #1d1919 } 
	</style>
	<g id="g10">
		<g id="g3393">
			<path id="path22" fill-rule="evenodd" class="s0" d="m222.1 150.4c0 61.8-48.9 111.9-109.3 111.9-60.4 0-109.4-50.1-109.4-111.9 0-61.8 49-111.9 109.4-111.9 60.4 0 109.3 50.1 109.3 111.9z"/>
			<path id="path24" class="s1" d="m4.5 166.5l-2.5-21.7 8.4-32.5 14.5-27.9 16.7-19.2 58.3-19.6 7.5 12.5c-107.5 3.4-99.5 120-99.5 120"/>
			<path id="path26" fill-rule="evenodd" class="s2" d="m33 232.3c-20.4-20.8-33-49.7-33-81.5 0-31.8 12.6-60.6 33-81.4 20.4-20.9 48.6-33.8 79.8-33.8 31.1 0 59.4 12.9 79.7 33.8 20.4 20.8 33 49.6 33 81.4 0 31.8-12.6 60.7-33 81.5-20.3 20.9-48.6 33.8-79.7 33.8-31.2 0-59.4-12.9-79.8-33.8zm4.9-158.2c-19.2 19.6-31.1 46.7-31.1 76.7 0 30 11.9 57.1 31.1 76.8 19.2 19.6 45.6 31.7 74.9 31.7 29.2 0 55.7-12.1 74.9-31.7 19.2-19.7 31-46.8 31-76.8 0-30-11.8-57.1-31-76.7-19.2-19.6-45.7-31.7-74.9-31.7-29.3 0-55.7 12.1-74.9 31.7z"/>
			<path id="path28" fill-rule="evenodd" class="s3" d="m158.8 151l-16.7 2.5-22.5 2.5-14.5 0.5-14.2-0.5-10.8-3.3-9.6-10.4-7.5-21.3-1.7-4.5-10-3.4-5.8-9.6-4.2-13.7 4.6-12.1 10.8-3.7 8.8 4.1 4.1 9.2 5-0.8 1.7-2.1-1.7-9.6-0.4-12.1 2.5-16.7-0.1-9.5 7.6-12.1 13.4-9.6 23.3-10 25.8 3.7 22.5 16.3 10.4 16.7 6.7 12 1.7 30-5 25.9-9.2 22.9-8.7 12.1"/>
			<path id="path30" fill-rule="evenodd" class="s4" d="m144.6 223.1l-59.5 2.5v10l5 35-2.5 2.9-41.7-14.1-2.9-5-4.2-47.1-9.6-28.3-2.1-6.7 33.4-22.9 10.4-4.2 9.2 11.3 7.9 7 9.1 3 4.2 1.2 5 21.7 3.8 4.6 9.5-3.4-6.6 12.9 36.2 17.1z"/>
			<path id="path32" fill-rule="evenodd" class="s5" d="m44.2 63.5l2.5-13.3 8.4-11.2 5.4-11.7 9.6-7.5 22.9-11.3 4.6 6.3-16.3 12.9-7.5 8.8 2.1 12.5-2.5 22.9 2.5 9.6-1.3 5-5 0.8-4.1-9.2-8.8-4.1-10.8 3.7z"/>
			<path id="path34" fill-rule="evenodd" class="s6" d="m53.4 39.4l4.6-8.4 10.4-10.4 27.1-10.4c0 0 23.7-2.1-1.3 5.4-25 7.5-31.2 22.9-31.2 22.9z"/>
			<path id="path36" fill-rule="evenodd" class="s6" d="m45.9 77.7l-1.7-14.2 6.7-21.6 22.9-5.4 1.3 5c-33.4 4.1-24.6 33.3-24.6 33.3z"/>
			<path id="path38" fill-rule="evenodd" class="s7" d="m63.8 113.5l5.5-5.2c0 0 2.4 0.2 2.8 3.2 0.5 2.9 1.7 29.1 19.6 43.3 1.7 1.3-13.3-2.1-13.3-2.1l-13.3-20.8"/>
			<path id="path40" fill-rule="evenodd" class="s7" d="m140.5 105.6c0 0 1-12.6 4.4-11.6 3.4 0.9 3.4 4.3 3.4 4.3 0 0-8.3 5.4-7.8 7.3z"/>
			<path id="path42" class="s7" d="m176.3 67.7c-1.2 0.4-9.4 5.2-8.7-0.8 0.6-6.1 7.5-7.5 7.5-7.5"/>
			<path id="path44" class="s7" d="m128.8 69.8c-2.9 2.5-13.3 2.9-13.3-2.9 0-5.9 9.1-7.1 9.1-7.1"/>
			<path id="path46" fill-rule="evenodd" class="s7" d="m68 86.9c0 0-15.9-9.6-17.5-0.4-1.7 9.1-5.4 15.8 2.5 25.4l-5.4-1.7-5-12.9-1.7-12.5 9.6-10 10.8 0.8 6.3 5z"/>
			<path id="path48" fill-rule="evenodd" class="s7" d="m75.1 41.5c-0.5-11.3 17.9-28.8 42.9-38.4 25-9.6 51.2 21.7 51.2 21.7-5.8-6.7-21.3-13.8-50.8-7.9-35.8 7.1-42.9 43.7-42.9 43.7 0 0 0.3 0-0.4-19.1z"/>
			<path id="path50" fill-rule="evenodd" class="s7" d="m175.9 37.7c-5.8-5.8-15.4 5-15.4 5-0.9-1.7-0.9-3.3-0.9-3.3 0.5-10.9 12.5-10.4 12.5-10.4"/>
			<path id="path52" fill-rule="evenodd" class="s7" d="m104.2 44.4c-4.6 2.1-4.1 9.6-5.4 11.9-1.3 2.3-0.8-1.1-2.5-2.8-1.7-1.6-2.5-10.4 6.7-16.6 14.2-9.7 16.2 6.9 16.2 6.9-2.9-3.8-10.4-1.5-15 0.6z"/>
			<path id="path54" fill-rule="evenodd" class="s8" d="m80.1 156.5l-39.2 17.5c0 0 16.2 64.5 7.9 84.5l-5.8-2-0.4-24.6-10.9-46.7-4.6-12.9 40.9-27.5z"/>
			<path id="path56" fill-rule="evenodd" class="s8" d="m84.1 192.2l5.5 6.8v25h-6.6c0 0-0.9-17.5-0.9-19.6 0-2.1 0.9-9.6 0.9-9.6"/>
			<path id="path58" fill-rule="evenodd" class="s8" d="m84.2 234.4l-13.3-2.1-5.4-3.8 18.7-0.8"/>
			<path id="path60" fill-rule="evenodd" class="s4" d="m148.4 223.5l15.4-0.4 3.8 38.4-15.9 2z"/>
			<path id="path62" fill-rule="evenodd" class="s4" d="m161.3 187.7v-38.7l10-10 3.8 3.3 18.7 19.6c0 0-8.3 33.7-8.3 35 0 1.2-9.6 25.4-9.6 25.4l-23.3 1.2z"/>
			<path id="path64" fill-rule="evenodd" class="s8" d="m165.1 231c0 0-9.2 6.7-14.6 4.2l-2.1-11.7 14.6-2.9"/>
			<path id="path66" fill-rule="evenodd" class="s8" d="m171.3 139l22.1 20.4-0.8 10-29.2-21.7z"/>
			<path id="path68" fill-rule="evenodd" class="s9" d="m98.7 305.6l-8.6-35-4.3-25.8-0.7-19.2 39-2.1h24.3l-2.2 43.8 3.7 33.7-0.4 6.3-31.6 2.5z"/>
			<path id="path70" fill-rule="evenodd" class="s6" d="m149.2 220.6l1.3 14.6 5 68.3-4.2 2.5-35 1.3c18.3-2.1 30.8-10 30.8-10-6.2-30.8-4.1-74.2-4.1-74.2"/>
			<path id="path72" fill-rule="evenodd" class="s9" d="m163.8 223.1l5.3-2.1 6.8 1.3 12.8-6.3 13.3-4.1 9.6 1.2 8.3 24.6-4.5 14.2-30.9 1.6-16.2 4.6"/>
			<path id="path74" fill-rule="evenodd" class="s6" d="m168 249.8c0 0 10.8-5 12.5-4.6l-4.6-22.9 5.4-2.1c0 0 3.8 21.7 3.8 24.2 0 0 23.3 1.2 25.4 1.2 0 0 5-9.6 3.7-19.6l4.6 13.4 0.4 7.5-6.6 10-7.5 1.6-12.5-0.4-4.2-5.4-14.6 2.1-4.6 1.7"/>
			<path id="path76" class="s9" d="m151.6 220.2l-9.2-23.3-9.5-13.8c0 0 2-5.8 5-5.8 2.9 0 9.5 0 9.5 0l9.2 3.3-0.8 15.4z"/>
			<path id="path78" fill-rule="evenodd" class="s6" d="m151.7 216.5l-3.3-0.5-16.3-38.3 9.6-1.2 14.2 2.9v7.9c0 0-6.3-3.3-9.2-4.6-2.9-1.2-5 3.8-5 3.8 0 3.3 11.7 25.8 11.7 25.8"/>
			<path id="path80" class="s9" d="m102 169.8l-16.6-7.5-5.3-5.8v-3.8l10.8 3.3 11.5 1.3"/>
			<path id="path82" fill-rule="evenodd" class="s6" d="m83.8 158.5c0 0 12.9 5.5 17.1 4.2l0.4 5-11.7-2.5-7-5z"/>
			<path id="path84" fill-rule="evenodd" class="s0" d="m168.2 178.7c-7-0.2-13.4-1-19-2.6 0.4-2.3-0.4-4.6 0.2-6.2 1.6-1.1 4.2-1.1 6.5-1.4-2-1-4.9-1.4-7.2-0.8-0.1-1.6-0.8-2.6-1.2-3.8 4-1.4 13.4-10.7 18.6-7.7 2.5 1.5 3.6 9.9 3.8 13.9 0.2 3.4-0.3 6.8-1.7 8.6z"/>
			<path id="path86" class="s10" d="m168.2 178.7c-7-0.2-13.4-1-19-2.6 0.4-2.3-0.4-4.6 0.2-6.2 1.6-1.1 4.2-1.1 6.5-1.4-2-1-4.9-1.4-7.2-0.8-0.1-1.6-0.8-2.6-1.2-3.8 4-1.4 13.4-10.7 18.6-7.7 2.5 1.5 3.6 9.9 3.8 13.9 0.2 3.4-0.3 6.8-1.7 8.6z"/>
			<path id="path88" fill-rule="evenodd" class="s0" d="m134.4 167.2q0 0.8 0 1.6c-2.3 1.4-5.8 1.4-8.2 2.6 3.5 0.2 6.3 1 8.8 2.2q-0.1 2.1-0.2 4.1c-4 2.8-7.7 6.9-12.5 9.5-2.2 1.2-10.1 4.4-12.5 3.8-1.4-0.3-1.5-2-2.1-3.6-1.1-3.4-3.8-8.8-4-13.9-0.3-6.4-1-17.3 6-15.9 5.6 1 12.1 3.6 16.5 6 2.7 1.5 4.2 3.2 8.2 3.6z"/>
			<path id="path90" class="s10" d="m134.4 167.2q0 0.8 0 1.6c-2.3 1.4-5.8 1.4-8.2 2.6 3.5 0.2 6.3 1 8.8 2.2q-0.1 2.1-0.2 4.1c-4 2.8-7.7 6.9-12.5 9.5-2.2 1.2-10.1 4.4-12.5 3.8-1.4-0.3-1.5-2-2.1-3.6-1.1-3.4-3.8-8.8-4-13.9-0.3-6.4-1-17.3 6-15.9 5.6 1 12.1 3.6 16.5 6 2.7 1.5 4.2 3.2 8.2 3.6z"/>
			<path id="path92" fill-rule="evenodd" class="s0" d="m138.4 174.9c-0.6-3.6-1.3-4.6-1-7.6 9.4-6.3 11.1 10.7 1 7.6z"/>
			<path id="path94" class="s10" d="m138.4 174.9c-0.6-3.6-1.3-4.6-1-7.6 9.4-6.3 11.1 10.7 1 7.6z"/>
			<path id="path96" fill-rule="evenodd" class="s1" d="m146.2 175.6v-9.1l0.8-4.6 15.9-9.2 5 1.7 2.5 7.5c-0.9-2.1-6.7-1.3-8.8-0.9-2.1 0.5-4.2 0.9-4.6 3.4-0.4 2.5 0.9 3.7-0.4 5.8-1.2 2.1-3.3 0.8-5.4 2.1-2.1 1.2 0.8 5.4 0.8 5.4"/>
			<path id="path98" fill-rule="evenodd" class="s1" d="m109.8 191c-4-7.9-15.9-26.9-4.7-34.5 4.4-3 13.9 0.1 18.1 2.2q4.9 2.6 9.8 5.1c1.8 1 7 0 8.2 1.4 2.2 6.6-7.4 11.3-12.8 8.4-6.4-3.5-0.4-2.5-2.6-7.1-0.5-1-7.1-2.5-8.4-2.5-8.4 0-11.6-1.7-10.7 8q0.8 9.7 1.6 19.5"/>
			<path id="path100" fill-rule="evenodd" class="s2" d="m119.2 43.8c-11.3-2.6-17 4.8-20.4 12.5-3.1-0.8-1.9-5-1.1-7.1 2.1-5.6 10.2-13 16.9-12 2.9 0.4 6.8 3.1 4.6 6.6z"/>
			<path id="path102" fill-rule="evenodd" class="s2" d="m174.6 56.8q0.2 0 0.5 0c2.6 5.3 4.8 11 8 15.7-2.1 5-16.4 9.5-16.2 0.4 3.1-1.3 8.4-0.3 11.2-2-1.6-4.3-3.9-8-3.5-14.1z"/>
			<path id="path104" fill-rule="evenodd" class="s2" d="m125.1 56.9c2.4 4.5 3.2 9.2 6.6 12.5 1.6 1.6 4.6 3.4 3.1 7.6-0.3 1-2.9 3.2-4.4 3.7-5.4 1.6-18 0.3-13.7-6.4 4.5 0.2 10.5 2.9 13.8-0.4-2.6-4.1-7.1-12.2-5.4-17z"/>
			<path id="path106" fill-rule="evenodd" class="s2" d="m172.5 102.3c-8.1 5.2-17.2 10.9-30.5 9.6-2.9-2.5-4-8-1.2-11.7 1.4 2.5 0.5 7.1 4.5 7.8 7.6 1.3 16.4-4.7 21.9-6.7 3.4-5.7-0.3-7.8-3.4-11.5-6.2-7.5-14.5-16.8-14.2-28.1 2.5-1.8 2.7 2.8 3.1 3.7 3.2 7.6 11.4 17.3 17.4 23.8 1.4 1.6 3.9 3.2 4.1 4.2 0.8 3.1-2 6.8-1.7 8.9z"/>
			<path id="path108" fill-rule="evenodd" class="s2" d="m49.2 89.1c1.4-0.9 2.5-3.4 5-2.2-2.2 4.2-1.7 12.5 1.3 15.2 0-5.1-0.8-13.7 3.5-13.4 3 0.2 3.6 6.6 6.1 8.1 2.8-13.6-14.1-20.5-15.9-7.7z"/>
			<path id="path110" fill-rule="evenodd" class="s2" d="m177.7 107.6c-3.8 7.2-9.1 15.2-20.3 15.4-0.2-2.3-0.4-5.9 0.1-7.3 8.5-0.8 13.7-5.1 20.2-8.1z"/>
			<path id="path112" fill-rule="evenodd" class="s2" d="m124.4 112.3c7.1 3.7 20.2 4.1 29.8 3.8 0.5 2.1 0.5 4.8 0.5 7.3-12.4 0.7-27-2.4-30.3-11.1z"/>
			<path id="path114" fill-rule="evenodd" class="s2" d="m123.1 119.2c4.9 12.4 21.7 10.9 36 10.6-0.7 1.6-2 3.5-3.7 4.2-4.6 1.8-17.1 3.2-23.5-0.1-4-2.2-6.6-7-8.8-9.8-1-1.4-6.3-4.9 0-4.9z"/>
			<path id="path116" fill-rule="evenodd" class="s11" d="m171.9 187.2c-5.7 9.9-11.2 20-18.1 28.7 2.9-8.4 4.1-22.5 4.6-33.3 6-2.8 11.1 0.7 13.5 4.6z"/>
			<path id="path118" fill-rule="evenodd" class="s2" d="m202.9 222.7c-6.4 1.3-10.9 7.5-17.2 7.1 3.4-4.8 9.5-6.9 17.2-7.1z"/>
			<path id="path120" fill-rule="evenodd" class="s2" d="m205.8 232.8c-5.3 0.5-11.4 1.4-16.8 0.9 2.5-3.8 12.3-2.5 16.8-0.9z"/>
			<path id="path122" fill-rule="evenodd" class="s2" d="m207.6 241.5c-5.9 0.1-13.2 0-18.9-0.5 3.4-3.6 15.1-1.3 18.9 0.5z"/>
			<path id="path124" fill-rule="evenodd" class="s6" d="m160.8 265.3c0.9 7.4 3.8 14.9 3.4 23-3.2 1.1-5.1 2.1-9.5 2.1-0.3-6.9-1.2-17.5-0.9-24 2.1 0.1 5.3-1.6 7-1.1z"/>
			<path id="path126" fill-rule="evenodd" class="s3" d="m151.3 155.9c-3 2-5.5 4.4-8.3 6.5-6.4 0.3-9.8-0.5-14.4-4.1 0-0.3 0.5-0.2 0.5-0.5 6.8 3 15.4-1.3 22.2-1.9z"/>
			<path id="path128" fill-rule="evenodd" class="s11" d="m115.8 202c1.9-8 9.1-12.2 15.8-16.6 6.8 8.6 10.9 19.8 15.5 30.5-10.8-3.2-21.8-8.5-31.3-13.9z"/>
			<path id="path130" fill-rule="evenodd" class="s2" d="m180.6 215.6c10.1-5 29-13.5 35.3 0 2.3 5 5.1 13.5 6.3 18.6 1.7 7.3-1.9 22.6-9.3 25-6.6 2.2-14.4 2-22.3 0.4-0.9-0.7-2-2.1-2.7-3.5-5.7-0.2-11 0.3-15.5 2.6 0.4 4.2-2.4 4.9-5.1 5.8-1.9 7.8 4 18 2.6 25.1-1 5.1-7.3 5.9-11.9 6.9-0.1 2.8 0.2 5.1 0.5 7.5-1 3.9-5.7 6.1-10.2 6.6-14.7 1.8-37 2.6-51.2-2.5-3.9-9.6-7-21.4-10.3-32.5-13.8 1.5-25-5.9-35.5-10.8-3.6-1.7-8.6-2.6-10-5.5-1.3-2.8-0.8-8.2-1.1-13.3-0.8-12.9-1.6-25.4-5-38.7-1.5-6-4.2-11.2-6.1-17-1.7-5.3-4.7-11.9-5.5-17.2-1.2-7.9 6.2-8.3 11-11.7 7.3-5.3 13-8.2 21-12.9 2.3-1.5 9.4-5 10.2-6.7 1.6-3.2-2.7-7.8-3.9-10.4-1.8-4-2.8-7.4-3.1-11.4-6.6-1.1-11.7-5-14.7-9.5-5-7.4-8.5-21-4.2-31.4 0.4-0.9 2.1-2.5 2.3-3.7 0.5-2.5-0.9-5.8-1-8.4-0.5-13.5 2.3-25.2 11.4-29.3 3.7-14.7 16.9-19.6 29.3-26.9 4.7-2.7 9.8-4.4 15.1-6.4 19-7 48.2-5.7 64 6.3 6.7 5 17.4 15.7 21.2 23.4 10.1 20.5 9.4 54.6 2.3 79.4-0.9 3.4-2.3 8.3-4.2 12.3-1.4 2.8-5.6 8.4-5 10.8 0.5 2.6 9.5 9.4 11.4 11.3 3.5 3.3 10 7.8 10.6 12 0.6 4.5-2 10.6-3.3 15-4.3 14.4-8.5 27.8-13.4 40.7zm-95 13.3c2.9 26.5 7.1 48.8 14.8 72.3 17 5.2 37.5 5.7 52.5 1-2.7-13.3-1.5-29.4-3.1-43.6-1.3-10.6-0.6-21.3-2.3-32.1-18.2-3.8-44-0.9-61.9 2.4zm66.2-2.3c-0.2 11.4 0.5 22.7 1.4 34.1 4.4-0.7 7.3-1.1 11.4-2-1.3-11-1.2-23.4-3.9-33.1-3.1 0.1-5.8 0-8.9 1zm22.2-1.8c-2.1-0.5-4.5 0-6.5 0 1 9.3 3.2 19.5 4 29.3 3.1 0.1 4.8-1.4 7.4-1.9 0.1-8.5-0.8-20.3-4.9-27.4zm33.6 30.7c6.5-1.6 10.6-9.6 8.8-17.7-1.2-5.5-3.4-15.9-5.7-19.4-1.8-2.6-6.4-6-10.2-3.6-6 3.8-16.7 5-21.1 9.7 2.2 7.3 2.9 17.5 3.8 26.8 7.6 0.5 16.9-2.1 23.2 0.6-4.4 1.5-10.1 1.5-13.9 3.5 3.1 1.5 10.4 1.2 15.1 0.1zm-60.5-39.6c-4.6-10.7-8.7-21.9-15.5-30.5-6.7 4.4-13.9 8.6-15.8 16.6 9.5 5.4 20.5 10.7 31.3 13.9zm11.3-33.3c-0.5 10.8-1.7 24.9-4.6 33.3 6.9-8.7 12.4-18.8 18.1-28.7-2.4-3.9-7.5-7.4-13.5-4.6zm-12.8-4.5c-2.6-0.3-4.8 3-8.2 1.6-0.7 0.8-1.4 1.8-2.2 2.6 7.4 8.9 10.8 21.7 16.5 32.2 3.1-10.1 2.8-21.2 3.4-32.2-4.2 0.2-6.5-3.9-9.5-4.2zm-8.2-10.8c-0.3 3 0.4 4 1 7.6 10.1 3.1 8.4-13.9-1-7.6zm-58.8-7.7c-1.1-0.8-8.8-10.8-9.8-10.4-13.9 5.5-26.9 15-38.5 23.9 11.1 23.7 15.5 52.8 16.3 80.7 12.7 6 23.8 14.5 41 15.4-2-14.1-3.8-26.6-5-39.9-4.3-1.8-10.5 0.1-14.5-0.5 0-4.9 6.2-2.2 6.7-5.4 0.4-2.5-3.4-2.7-2.2-6.6 3.2 1.2 4.8 3.7 8.2 4.7 3.1-6.8 0-18.7 0.4-24.3 0.1-1.1 0.5-5.9 2.9-5 2.1 0.7-0.1 12.7 0.1 18.1 0.2 4.9-0.6 9.6 1.4 12.7 16.6-2.3 33.5-3.7 51.4-4.2-3.9-1.7-8.6-3.3-13.8-6.2-2.8-1.6-11.6-4.9-12.4-7.5-1.3-4.2 3.4-6.5 4.2-10.1-8.4 4.6-10-4.4-12-10.7-1.8-5.8-2.8-10.1-3.3-13.4-7.2-3.4-14.9-6.9-21.1-11.3zm6.1-3.5c-3.6 3.6 10.1 8.6 14.5 8.9-0.1-2.3 1.3-4.5 1-6.2-5.2-0.9-12-0.3-15.5-2.7zm44.4 1.7c0 0.3-0.5 0.2-0.5 0.5 4.6 3.6 8 4.4 14.4 4.1 2.8-2.1 5.3-4.5 8.3-6.5-6.8 0.6-15.4 4.9-22.2 1.9zm40.8 12.3c-0.2-4-1.3-12.4-3.8-13.9-5.2-3-14.6 6.3-18.6 7.7 0.4 1.2 1.1 2.2 1.2 3.8 2.3-0.6 5.2-0.2 7.2 0.8-2.3 0.3-4.9 0.3-6.5 1.4-0.6 1.6 0.2 3.9-0.2 6.2 5.6 1.6 12 2.4 19 2.6 1.4-1.8 1.9-5.2 1.7-8.6zm-43.7-6.5c-4.4-2.4-10.9-5-16.5-6-7-1.4-6.3 9.5-6 15.9 0.2 5.1 2.9 10.5 4 13.9 0.6 1.6 0.7 3.3 2.1 3.6 2.4 0.6 10.3-2.6 12.5-3.8 4.8-2.6 8.5-6.7 12.5-9.5q0.1-2 0.2-4.1c-2.5-1.2-5.3-2-8.8-2.2 2.4-1.2 5.9-1.2 8.2-2.6q0-0.8 0-1.6c-4-0.4-5.5-2.1-8.2-3.6zm36.4-13.2c11.5-5.6 13.6 21 9.1 29.5 0.7 2.6 3.1 3.6 4.1 5.8-6.5 11.6-13.6 22.4-20.2 33.8 4.9-3.1 11.9-0.6 17.6-2.8 2.1-0.9 3.7-5.7 5.3-9.5 4.3-10.6 8.9-24 11-34.1 0.5-2.3 1.7-7.4 1.4-9.4-0.5-3.7-5.5-6.4-8-8.7-4.7-4.2-7.6-7.9-12.5-11.8-2 2.9-6.2 4.9-7.8 7.2zm-6.1-134.3c-13-7.3-34.9-12.7-48.6-5.9-11.1 5.6-26.2 14.7-31.3 26.3 4.8 11.2-1.4 21.5-1.8 32.9-0.2 6 2.9 11.3 3.1 17.9-1.6 2.7-6.6 3-10.1 2.8-1.2-5.8-3.2-12.4-9.2-13-8.5-0.9-14.7 6.1-15.1 13.4-0.4 8.7 6.7 23 16.7 22 3.9-0.4 4.8-4.3 9.1-4.2 2.3 4.5-3.6 6-4.2 9.2-0.1 0.9 0.5 4.2 0.9 5.7 1.8 7.6 5.9 17.3 9.9 23.1 5.1 7.3 15.1 8.4 25.8 9.1 1.9-4.2 9-3.8 13.6-2.7-5.5-2.2-10.7-7.5-14.9-12.2-4.9-5.4-9.8-11.2-10.1-18.2 9.2 12.8 16.9 24 33.7 29.6 12.7 4.3 27.5-1.9 37.2-8.8 4.1-2.8 6.5-7.4 9.4-11.5 10.8-15.5 15.8-37.6 14.7-59-0.5-8.9-0.4-17.7-3.4-23.6-3.1-6.3-13.6-11.8-19.7-6.2-1.2-6 5.1-9.8 12.4-7.6-5.2-6.8-10.7-14.9-18.1-19.1zm-64.9-3.3c-12.5 3.6-28.5 12.6-33.6 23.8 4-0.6 6.7-2.6 10.6-2.8 1.5-0.1 3.5 0.6 5.2 0.2 3.3-0.9 6.2-8.5 8.8-11.3 2.5-2.7 5.4-3.9 7.5-6.4 1.3-0.7 3.3-0.6 3.3-2.6-0.5-0.6-1.1-1.1-1.8-0.9zm-39.4 35.2c-5.5 6-4.4 17.4-3.7 25.5 9.9-6.3 23.2 0.5 23 11.1 4.8-0.1 1.8-5.9 0.9-9.7-2.8-12.2 4.8-25.5 0.4-36.6-8.5 0.6-15.5 4.1-20.6 9.7zm101.6 218.4c-0.3 6.5 0.6 17.1 0.9 24 4.4 0 6.3-1 9.6-2.1 0.3-8.1-2.6-15.6-3.5-23-1.7-0.5-4.9 1.2-7 1.1z"/>
			<path id="path132" fill-rule="evenodd" class="s7" d="m113.1 115.4c0.6-0.7 3.6-1.8 7.8 0.2 0 0-5 0.9-4.6 9.2l-2.1-0.4c0 0-2.1-7.6-1.1-9z"/>
			<path id="path134" fill-rule="evenodd" class="s12" d="m149.6 187.1c0 1.2-1 2.3-2.2 2.3-1.3 0-2.3-1.1-2.3-2.3 0-1.3 1-2.3 2.3-2.3 1.2 0 2.2 1 2.2 2.3z"/>
			<path id="path136" fill-rule="evenodd" class="s12" d="m151.9 197.7c0 1.3-1 2.3-2.3 2.3-1.2 0-2.2-1-2.2-2.3 0-1.3 1-2.3 2.2-2.3 1.3 0 2.3 1 2.3 2.3z"/>
		</g>
	</g>
</svg>