<svg version="1.2" xmlns="http://www.w3.org/2000/svg" viewBox="0 0 256 249" width="52" height="52">
	<title>kubernets-svg</title>
	<style>
		.s0 { fill: #326de6 } 
		.s1 { fill: #ffffff } 
	</style>
	<path id="Layer" class="s0" d="m82.1 244.9c-6 0-11.6-2.6-15.4-7.4l-57.8-71.8c-3.8-4.8-5.3-10.9-3.8-16.9l20.7-89.7c1.3-5.9 5.3-10.7 10.7-13.4l83.6-39.9c2.6-1.3 5.6-2 8.6-2 2.9 0 5.9 0.7 8.6 2l83.5 39.8c5.5 2.6 9.4 7.4 10.8 13.4l20.6 89.6c1.3 6 0 12.1-3.8 16.9l-57.8 71.8c-3.8 4.7-9.4 7.5-15.4 7.5 0 0-93.1 0.1-93.1 0.1z"/>
	<path id="Layer" fill-rule="evenodd" class="s1" d="m138.6 2.5l83.2 39.9c6.6 3.2 11.2 9 12.9 16.1l20.6 89.6c1.7 7.2 0 14.6-4.6 20.2l-57.8 71.8c-4.5 5.7-11.2 8.8-18.3 8.8h-92.7c-7.1 0-13.9-3.1-18.3-8.8l-57.8-71.8c-4.6-5.8-6.3-13-4.6-20.1l20.6-89.7c1.7-7.1 6.3-12.9 12.9-16.1l83.6-39.9c3.3-1.5 6.7-2.3 10.2-2.3 3.5 0 6.9 0.8 10.1 2.3zm-17 6.8l-83.6 39.9c-4.3 2-7.4 6-8.6 10.8l-20.6 89.6c-1 4.8 0.1 9.8 3.1 13.6l57.8 71.8c3 3.8 7.6 6 12.4 6h92.6c4.8 0 9.5-2.2 12.4-6l57.8-71.8c3.2-3.8 4.3-8.8 3.2-13.6l-20.7-89.6c-1-4.7-4.3-8.6-8.6-10.8l-83.5-39.8c-2.2-1-4.5-1.5-6.8-1.5-2.3 0-4.8 0.5-6.9 1.4z"/>
	<path id="Layer" fill-rule="evenodd" class="s1" d="m212.2 142.5c3 0.9 4.8 3.5 4.8 5.5-0.6 2.1-2.8 3.8-5.3 3.8-0.5 0-0.8 0-1.3-0.2-0.1-0.1-0.3-0.1-0.5-0.1-0.3 0-0.6-0.2-1-0.2-1.1-0.3-2-0.7-2.9-1.2-0.5-0.1-1-0.5-1.5-0.6h-0.2c-3.1-1.2-5.9-2.2-8.6-2.5h-0.3c-1 0-1.5 0.5-2.2 0.8-0.1 0-0.1 0.2-0.3 0.2l-2-0.3c-1.6 5.1-3.9 10.2-6.9 14.8-5.6 8.9-13.1 16.2-21.8 21.3l0.8 2c0 0.2-0.2 0.2-0.2 0.3-0.1 0.9-0.4 1.5-0.1 2.7 0.8 2.5 2.5 4.9 4.3 7.7v0.2c0.3 0.5 0.6 0.8 1 1.3 0.6 0.9 1.3 1.7 1.8 2.7 0.2 0.1 0.3 0.5 0.5 0.8 0 0.2 0.1 0.2 0.1 0.3 0.7 1.3 0.7 2.8 0.4 4.2-0.4 1.3-1.3 2.3-2.5 2.9q-1 0.5-2 0.5c-2 0-3.9-1.1-4.9-3.1 0 0-0.2-0.2-0.2-0.3-0.2-0.4-0.3-0.5-0.5-0.9-0.5-1-0.7-2-1-2.9l-0.5-1.5v-0.2c-1.1-3.1-2.1-5.9-3.5-8.3-0.6-0.9-1.3-1.3-2.1-1.4-0.2-0.2-0.2-0.2-0.3-0.2l-1-1.8q-1.1 0.4-2.1 0.7-1.1 0.3-2.2 0.6-1.1 0.4-2.1 0.6-1.1 0.3-2.2 0.6c-4.6 1.1-9.6 1.6-14.4 1.6-7.9 0-15.8-1.5-23.1-4.3l-1.2 2.2c-0.1 0.1-0.1 0.1-0.3 0.1-0.6 0.4-1.5 0.5-2.1 1.5-1.5 2.3-2.3 5-3.5 8.3l-0.5 1.5c-0.3 0.9-0.5 1.8-1 2.9-0.2 0.2-0.3 0.5-0.5 0.9 0 0-0.2 0.1-0.2 0.3-0.9 1.8-2.9 3.1-4.9 3.1q-1 0-2-0.5c-2.5-1.1-3.5-4.3-2.1-7.1 0 0 0.1-0.1 0.1-0.3 0.2-0.3 0.4-0.7 0.5-0.8 0.7-1 1.2-1.8 1.8-2.7 0.4-0.5 0.7-0.8 1-1.3v-0.2c1.9-2.8 3.3-5.2 4.3-7.7 0.4-1.2 0-2-0.3-2.7 0-0.1-0.2-0.1-0.2-0.3l1-2.1c-2.5-1.5-4.8-3-7.1-4.8-10.1-8-17.7-18.9-21.6-31.1l-2.3 0.4c-0.2 0-0.2-0.2-0.4-0.2-0.5-0.3-1.1-0.8-2.1-0.8h-0.3c-2.7 0.3-5.5 1.3-8.6 2.4h-0.2c-0.5 0.2-1 0.5-1.5 0.7-1 0.5-1.8 0.8-2.9 1.2-0.4 0-0.7 0.1-1 0.1 0 0.2-0.2 0.2-0.4 0.2-0.5 0.1-0.8 0.1-1.3 0.1-2.6 0-4.8-1.4-5.3-3.8-0.5-2.6 1.3-5.4 4.3-6.1 0.2-0.1 0.3-0.1 0.5-0.1 0.3 0 0.7-0.2 1-0.2 1.2-0.2 2.2-0.3 3.1-0.3 0.5-0.2 1.2-0.2 1.7-0.2h0.2c3.4-0.3 6.4-0.6 8.9-1.5 1-0.5 1.5-1.1 1.8-1.8 0-0.2 0.2-0.2 0.2-0.3l2.1-0.7c-2.1-15.2 1-30.5 9.3-43.6 0.1-0.5 0.5-0.8 0.8-1.3l-1.7-1.5v-0.3c0-0.8 0-1.7-0.8-2.5-2-1.8-4.5-3.3-7.4-5.1-0.5-0.4-1-0.7-1.5-0.8-1-0.5-1.8-1-2.8-1.7-0.4-0.2-0.5-0.5-0.8-0.7-0.2 0-0.2-0.1-0.4-0.1-2.3-2-2.8-5.3-1.1-7.5 0.8-1.1 2.3-1.8 3.8-1.8q0.5 0 0.9 0.1 0.5 0.1 1 0.3 0.5 0.1 0.9 0.4 0.4 0.2 0.8 0.6c0 0.1 0.2 0.1 0.3 0.3 0.4 0.3 0.7 0.5 0.9 0.6 0.8 0.9 1.4 1.5 2.1 2.4 0.5 0.3 0.8 0.8 1.2 1.1 2.3 2.5 4.4 4.6 6.6 6.1q0.7 0.5 1.5 0.5c0.3 0 0.6-0.1 0.9-0.1h0.4l1.6 1.1c8.8-9.2 20-15.7 32.7-18.5 3-0.7 6-1 8.9-1.3l0.2-2.2 0.3-0.3c0.5-0.5 1.2-1 1.4-2.1 0.3-2.7-0.2-5.7-0.5-9v-0.1c-0.2-0.7-0.2-1.2-0.4-1.7-0.3-1-0.5-2-0.5-3.1v-1.3c0-1.5 0.5-2.8 1.5-3.8 1-1 2.3-1.7 3.7-1.7 2.8 0 5.1 2.5 5.1 5.5v1.5c-0.2 1.1-0.4 2.1-0.5 3.1-0.2 0.5-0.3 1.1-0.3 1.6v0.2c-0.4 3.3-0.7 6.3-0.5 8.9 0.1 1.2 0.8 1.7 1.3 2.2l0.3 0.3 0.2 2.2q4.7 0.4 9.3 1.5 4.5 1.1 8.9 2.8 4.4 1.8 8.5 4.1 4.1 2.4 7.8 5.3c2.3 1.9 4.6 3.9 6.8 6.2l1.9-1.3h0.4c0.3 0.2 0.6 0.2 1 0.2q0.7 0 1.5-0.5c2.1-1.5 4.2-3.5 6.6-6 0.5-0.3 0.8-0.8 1.1-1.1 0.7-0.8 1.3-1.5 2.2-2.3 0.3-0.2 0.5-0.5 0.8-0.7l0.3-0.3c1.2-0.8 2.3-1.3 3.7-1.3 1.4 0 2.9 0.6 3.8 1.8 1.6 2.1 1.1 5.4-1.2 7.4 0 0.2-0.2 0.2-0.3 0.3-0.4 0.4-0.7 0.5-0.9 0.7-0.9 0.7-1.8 1.2-2.8 1.6-0.5 0.4-1 0.5-1.5 0.9-2.9 1.8-5.4 3.3-7.4 5.1-0.6 0.8-0.8 1.6-0.8 2.5v0.3l-1.7 1.5q1.7 2.5 3 5.1 1.4 2.6 2.6 5.3 1.2 2.7 2.1 5.5 0.9 2.8 1.6 5.7 0.7 2.9 1.1 5.8 0.4 2.9 0.5 5.8 0.2 2.9 0 5.9-0.1 2.9-0.5 5.8l2.2 0.7c0 0.1 0.2 0.1 0.2 0.3 0.3 0.7 0.6 1.3 1.8 1.8 2.6 0.8 5.4 1.2 8.9 1.5h0.2c0.6 0.2 1.1 0.2 1.6 0.2 1 0 2 0.1 3.1 0.3 0.4 0 0.7 0.2 1 0.2 0 0.1 0.2 0.1 0.4 0.1zm-74.9-15.8l-4.9-6.3h-8.1l-5 6.3 1.9 7.7 7.2 3.5 7.3-3.5c0 0 1.6-7.7 1.6-7.7zm35.2-25.1l-20 18c-0.5 0.5-0.8 1.1-0.9 1.8-0.5 2.3 0.8 4.6 3.1 5.3l25.3 7.2q0.2-2 0.2-4.1 0-2.1-0.1-4.2-0.2-2.1-0.5-4.2-0.3-2.1-0.8-4.1c-1.3-5.8-3.5-11.1-6.3-15.7zm-14.3-15.4q-3.5-2.4-7.2-4.2-3.8-1.9-7.9-3-4-1.2-8.2-1.7l1.5 26.9c0.1 0.7 0.3 1.3 0.8 1.8 1.5 1.8 3.9 2.2 5.8 1l21.6-15.3q-3-3-6.4-5.5zm-66.1 5.5l22 15.7c0.5 0.3 1.3 0.4 1.9 0.4 2.5 0 4.3-1.9 4.5-4.2l1.5-26.5c-1.8 0.4-3.5 0.7-5.3 1-9.4 2.2-17.8 6.8-24.6 13.6zm-15.4 42.2l25.6-7.4c0.9-0.2 1.5-0.6 2-1.3 1.5-1.8 1.3-4.6-0.5-6.1l-19.6-17.5c-6 9.7-8.5 21.1-7.5 32.3zm23.7 38.4l10-24.3c0.4-0.8 0.4-1.7 0.2-2.7-0.5-2.1-2.5-3.6-4.6-3.4l-26.3 4.4c4 10.9 11.4 20 20.7 26zm44.4 5.6l-12.7-23q-0.2-0.3-0.5-0.5-0.2-0.3-0.4-0.5-0.3-0.2-0.6-0.4-0.2-0.2-0.5-0.4c-1.8-1-4-0.3-5.3 1.2l-13 23.6c5.2 1.6 10.9 2.6 16.6 2.6 4 0 7.8-0.5 11.6-1.3 1.6-0.5 3.3-0.8 4.8-1.3zm32.2-31.7l-26.4-4.5c-0.9 0-1.7 0.2-2.3 0.5-2 1-2.9 3.1-2.4 5.1l10.4 25c6.3-4.2 11.8-9.5 15.9-16.1 2.1-3.1 3.8-6.4 4.8-10z"/>
</svg>