<svg version="1.2" xmlns="http://www.w3.org/2000/svg" viewBox="0 0 19 41" width="52" height="52">
	<title>mongodb-svg</title>
	<style>
		.s0 { fill: #599636 } 
		.s1 { fill: #6cac48 } 
		.s2 { fill: #c2bfbf } 
	</style>
	<path id="Layer" class="s0" d="m7.9 6.1l0.9 1.6q0.2 0.4 0.6 0.8 0.3 0.3 0.5 0.5 0.3 0.3 0.5 0.6 0.3 0.3 0.5 0.6 0.3 0.3 0.5 0.6c1.5 1.9 2.4 4 3.1 6.3q0.7 2 0.7 4.2 0.1 6.5-4.4 11.1-0.2 0.2-0.4 0.4-0.2 0.2-0.4 0.3-0.2 0.2-0.4 0.4-0.2 0.1-0.4 0.3c-0.3 0-0.4-0.2-0.5-0.5q-0.1-0.1-0.2-0.3-0.1-0.1-0.1-0.3-0.1-0.1-0.1-0.3-0.1-0.1-0.1-0.3c-0.1-0.5-0.2-1.1-0.1-1.6v-0.2c0-0.1-0.3-24.1-0.2-24.2z"/>
	<path id="Layer" class="s1" d="m8.1 30.5l-0.4 2.7q0 0 0 0.1 0 0.1 0 0.2 0 0.1-0.1 0.2 0 0.1 0 0.1c0 0.1-0.1 0.3-0.2 0.3q-0.8-0.6-1.6-1.3c-2-2-3.5-4.2-4.3-6.9-0.4-1-0.8-4.5-0.7-5.5 0.2-2.8 0.9-5.4 2.2-7.8 1-1.9 2.2-3.5 3.7-4.8 0.3-0.3 0.6-0.5 0.8-0.8 0.2-0.3 0.3-0.6 0.3-0.9 0-0.1 0.1-0.1 0.1-0.1z"/>
	<path id="Layer" class="s2" d="m8.7 35.7v1.6 0.5c0 0.1 0 0.2-0.1 0.2-0.1-0.1-0.3-0.1-0.4-0.2-0.4-0.1-0.4 0-0.4-0.4v-0.4c0-1-0.1-1.9-0.4-2.8q0-0.1 0-0.1c0.2-0.3 0.2-0.6 0.3-0.9q0-0.3 0.1-0.6 0-0.3 0.1-0.6 0-0.3 0-0.6 0.1-0.3 0.1-0.6c0-0.1 0-0.7 0.1-0.7v0.4c0 0.8 0.1 1.5 0.3 2.3q0.1 0 0.1 0.1 0 0.1 0.1 0.1 0 0.1 0 0.2 0.1 0.1 0.1 0.1c0.1 0.2 0.3 0.4 0.5 0.5-0.2 0.3-0.4 0.6-0.4 1-0.1 0.3-0.1 0.6-0.1 0.9z"/>
</svg>