<svg version="1.2" xmlns="http://www.w3.org/2000/svg" viewBox="0 0 256 252" width="52" height="52">
	<title>mysql-svg</title>
	<style>
		.s0 { fill: #00546b } 
	</style>
	<path id="Layer" class="s0" d="m223.6 184.3c-5.5-4-11.4-8.2-17.4-11.8-3.1-1.9-8.5-3.3-12-4.9-4.7-1.9-15.1-3.8-17.7-7.5-5.2-6.8-8.7-15.1-12.4-23.3-3.6-8.4-8.1-17.1-11.8-25.6-1.9-4.2-2.8-7.8-4.9-11.8-12.7-24.5-31.5-45.1-54.2-59.5-7.5-4.7-15.9-9.1-25.1-12-5.2-1.6-11.5-0.7-17-1.9h-3.7c-3.1-0.9-5.7-4.2-8.2-5.9-5.4-3.7-10.8-6.1-17.2-8.7-2.3-1.1-8.7-3.5-11-1.6-1.4 0.3-2 0.9-2.4 2.3-1.4 2-0.2 5.2 0.7 7.1 2.6 5.6 6.3 8.9 9.6 13.6 2.9 4.1 6.6 8.8 8.7 13.4 4.5 9.7 6.6 20.5 10.8 30.2 1.5 3.7 4 7.9 6.2 11.2 1.9 2.6 5.4 4.5 6.5 7.8 2 3.5-3.2 15-4.4 18.6-4.5 14.3-3.7 34.1 1.6 46.5 2.1 4.8 4 10.6 9.5 12 0.4-0.4 0-0.2 0.7-0.4 1.3-9.6 1.6-18.8 4.9-26.3 1.9-4.7 5.7-8 8.4-11.8 1.7 1.1 1.7 4.2 2.7 6.3 2.3 5.4 4.7 11.3 7.5 16.7 5.8 11.1 12.2 21.9 19.5 31.6 2.4 3.5 5.9 7.4 9.1 10.5 1.3 1.2 2.9 1.9 4 3.5h0.3v0.5c-5.2-1.9-8.5-7.3-12.7-10.5-7.8-5.9-17.2-14.7-22.6-23.3-2.3-4.8-4.7-9.5-7.1-14.4v-0.4c-1.1 1.4-0.7 2.8-1.3 4.9-2.2 8.7-0.5 18.6-8.3 21.8-8.9 3.6-15.5-6-18.3-10.3-8.9-14.4-11.3-38.8-5-58.5 1.4-4.3 1.5-9.5 4-13-0.5-3.1-3-4-4.4-5.9-2.4-3.3-4.5-7.2-6.4-10.8-3.7-7.1-6.3-15.7-9.1-23.3-1.2-3.2-1.5-6.3-2.7-9.2-2.1-4.6-6-9.1-8.9-13.1-4-5.7-15.7-16.9-11-28.2 7.3-17.9 32.9-4.3 42.8 1.9 2.5 1.6 5.2 4.9 8 6.1 4.4 0.2 8.7 0.5 13.1 0.7 8.1 1.9 15.8 3.5 22.2 7.2 30 17.5 49.5 35.4 67.4 65 3.8 6.3 5.7 13.1 8.8 19.9 4.4 10 9.3 20.7 14.3 30.2 2.3 4.6 4 9.6 7.1 13.4 1.3 1.8 4.7 2.3 6.8 3.3 5.8 3 12.7 5.3 18.1 8.7 10.1 6.3 19.9 13.8 28.7 21.4 3.3 3 5.6 7.2 8.7 10.3v1.6c-2.8 0.8-5.5 1.7-8.3 2.4-6.1 1.6-11.5 1.2-17.4 2.8-3.7 1-8.2 2.4-12 2.8 0.1 0.1 0.3 0.3 0.3 0.3 2.3 6.5 14.5 11.7 20 15.5 6.8 4.9 13.1 10.8 18.1 17.6 1.8 1.7 3.5 3.3 5.2 5 1.3 1.8 1.6 4 2.8 5.6v0.5c-2.4-0.9-3.6-3.1-5.5-4.5-3.9-2.6-7.7-5.8-11.5-8.2-6.6-4.2-14.3-6.6-21.1-10.8-3.8-2.4-7.5-5.2-11.1-8-3.3-2.4-7-7.1-9.1-10.6-1.2-1.9-1.3-4.2-2.7-5.6 0.3-3.3 4.5-3.3 7.1-4.3 9-3.8 19.8-5.2 33.7-4.9-0.5-3.5-9.2-7.8-12-9.9z"/>
	<path id="Layer" class="s0" d="m62.9 47c0.9 1.2 1 2.5 2.1 3.7 0 4.2-1.2 6.9-3.7 8.7 0 0-0.2 0.2-0.3 0.3-1.4-2.8-2.6-5.5-4-8.3-1.8-2.5-4.2-4.4-5.6-7.2h-0.3v-0.3c2-0.5 4.1-0.9 7.1-0.9 1.4 1.4 3.6 2.3 4.7 4z"/>
</svg>