<svg version="1.2" xmlns="http://www.w3.org/2000/svg" viewBox="0 0 256 237" width="52" height="52">
	<title>openshift-svg</title>
	<style>
		.s0 { fill: #da2430 } 
		.s1 { fill: #e82429 } 
		.s2 { fill: #c22035 } 
		.s3 { fill: #ac223b } 
		.s4 { fill: #b92135 } 
	</style>
	<path id="Layer" class="s0" d="m76 127l-38.8 14.1c-1.6-6.3-2.7-12.8-3.2-19.3l40.8-14.9c-0.5 6.8 0 13.5 1.2 20.1zm179.4-65.3l-38.8 14.1c-3.2-5.8-7.2-11.3-12-16.1l40.9-14.9c3.8 5.3 7.1 11 9.9 16.9q0 0 0 0z"/>
	<path id="Layer" class="s0" d="m182.9 61.5c-5.1-4.5-10.9-8.3-17.4-11.4-37.9-17.7-83.2-1.2-100.9 36.8q-0.3 0.8-0.7 1.6-0.3 0.8-0.7 1.6-0.3 0.8-0.6 1.6-0.3 0.8-0.6 1.6c-2.2 6.5-3.5 13-4 19.6h-0.1l-0.1 0.2-24.6 8.9-15.8 5.9v-0.1l-0.4 0.2c-1.6-19.5 1.7-39.6 10.5-58.5q0.5-0.9 0.9-1.8 0.5-0.9 0.9-1.8 0.5-0.9 1-1.8 0.4-0.9 0.9-1.8c29.1-54.1 95.2-76.7 150.9-50.3q4.3 2 8.3 4.3 4 2.3 7.9 5 3.8 2.6 7.4 5.6 3.6 2.9 7 6.1 2.2 2.1 4.3 4.2 2.1 2.2 4 4.4 2 2.3 3.9 4.6 1.8 2.3 3.6 4.8l-40.9 14.9q-0.1-0.1-0.1-0.2-0.1-0.1-0.2-0.2-0.1 0-0.2-0.1 0-0.1-0.1-0.2l-0.1 0.1q-0.5-0.5-1-1-0.5-0.5-1-1-0.4-0.4-0.9-0.9-0.5-0.5-1.1-0.9z"/>
	<path id="Layer" class="s1" d="m19.3 193.9h-0.1q-3.2-4.5-5.9-9.2-2.8-4.7-5.1-9.7-2.3-5-4.1-10.2-1.8-5.1-3.2-10.5l38.9-14.1v0.1l0.2-0.1v0.1c2 10.5 6.2 20.6 12.2 29.5q0.9 1.2 1.8 2.4 1 1.2 1.9 2.4 1 1.1 2 2.3 1 1.1 2.1 2.2h-0.2l0.3 0.3-40.5 15q-0.2-0.2-0.3-0.5z"/>
	<path id="Layer" class="s0" d="m201.4 151.2q1.4-3.1 2.6-6.4 1.1-3.2 2-6.5 0.9-3.4 1.4-6.8 0.6-3.4 0.8-6.8l40.5-14.9q0 0.3 0 0.6l1.2-0.4c1.5 19.4-1.7 39.5-10.5 58.3-8.4 18.1-20.9 32.9-35.7 44.1-33.3 25.8-79.2 32.4-119.7 13.3-18.7-8.9-34-22.3-45.2-38.3v-0.1l-0.3-0.4 40.7-14.8q2.4 2.4 5 4.6 2.6 2.2 5.4 4.2 2.8 2 5.7 3.7 3 1.7 6.1 3.2c24 11.2 51 8.7 72.1-4.4 11.7-7.5 21.6-18.5 27.9-32.2z"/>
	<path id="Layer" class="s1" d="m218.6 75.1l0.6-0.2q2.4 4.9 4.3 10.1 1.9 5.1 3.3 10.4 1.5 5.3 2.4 10.7 1 5.4 1.4 10.9l-40.8 14.8 0.1-0.3-0.8 0.3c1.1-15.1-2.3-30.1-9.4-43.1l38.5-14.3q0.2 0.4 0.4 0.7z"/>
	<path id="Layer" class="s2" d="m74.9 106.7c-0.5 6.8-0.1 13.6 1.2 20.2l-38.6 14.3c-1.6-6.4-2.7-12.9-3.2-19.5l40.6-15m179.3-45.6l-38.5 14.2c-3.3-5.9-7.2-11.4-11.9-16.3l40.5-15c3.8 5.4 7.1 11.2 9.9 17.1q0 0 0 0z"/>
	<path id="Layer" class="s3" d="m34.3 121.7l40.5-14.9-0.2 8.2-39 14.7-1.3-8.1zm169.5-62.7l41.1-14.1 4.2 6.4-39.9 14.1-5.4-6.4z"/>
	<path id="Layer" fill-rule="evenodd" class="s4" d="m38.8 187.2zm40.5-14.7l12.3 11.5-42.6 16-10.2-12.8zm170.1-62.6l-0.4 15.7-43.8 15.6 3-16.4 41.2-14.9q0 0 0 0z"/>
</svg>