<svg version="1.2" xmlns="http://www.w3.org/2000/svg" viewBox="0 0 572 800" width="52" height="52">
	<title>portainer-svg</title>
	<style>
		.s0 { fill: #13bef9 } 
	</style>
	<g id="Layer">
		<path id="Layer" class="s0" d="m190.8 239.1h-12.2v-63.2h12.2zm52.5 0h-12.2v-63.2h12.2zm-137-63.2l-12.5-21.7 208.7-120.6 12.5 21.7z"/>
		<path id="Layer" class="s0" d="m313.8 55.3l12.5-21.7 208.6 120.6-12.5 21.7z"/>
		<path id="Layer" class="s0" d="m0.2 176.2v-25h571.7v25z"/>
		<path id="Layer" fill-rule="evenodd" class="s0" d="m345.5 529.8v-371h25v389c-6.7-7.6-15.2-13.1-25-18zm-17.7-3.4v-526.4h-25v523.4c0.9 0 18-0.4 25 3zm-237.9 45.5c3.3 0 5.4 0.3 8.8 0.6 9.5-39.7 46.1-66.2 88.8-66.2 24.1 0 47.9 6.7 64 22.3 7.7-15.9 10.1-33.6 10.1-52.6 0-21.6-5.5-43-16.5-61.6h-213.5c-10.7 18.6-16.5 40-16.5 61.6 0 41 20.1 77 50.7 99.6 7.9-2.2 15.8-3.4 24.1-3.7z"/>
		<path id="Layer" class="s0" d="m170.7 332.2h-64.7v-65h64.7zm-72.9 0h-64.7v-65.1h64.7zm0 72.4h-64.7v-65h64.7zm72.9 0h-64.7v-65.1h64.7zm72.6 0h-64.7v-65h64.7zm0-107.2h-64.7v-65h64.7z"/>
		<path id="Layer" fill-rule="evenodd" class="s0" d="m109.4 585.3c8.8-37.5 42.7-65.6 83-65.6 25.9 0 49.1 11.6 64.9 29.9 13.8-9.4 30.2-14.9 48.2-14.9 47 0 85.2 38.1 85.2 85.1 0 9.8-1.6 19-4.6 27.8 10.4 14.1 16.8 31.8 16.8 50.7 0 47-38.2 85.2-85.2 85.2-20.7 0-39.6-7.3-54.3-19.5-15.5 21.7-40.8 36-69.5 36-33 0-61.7-18.9-76-46.4-5.8 1.2-11.6 1.8-17.7 1.8-47 0-85.4-38.1-85.4-85.2 0-47 38.1-85.2 85.4-85.2 3.1-0.3 6.1-0.3 9.2 0.3z"/>
	</g>
</svg>