<svg version="1.2" xmlns="http://www.w3.org/2000/svg" viewBox="0 0 256 257" width="52" height="52">
	<title>prometheus-svg</title>
	<style>
		.s0 { fill: #da4e31 } 
	</style>
	<path id="Layer" fill-rule="evenodd" class="s0" d="m256 128.7c0 70.7-57.3 128-128 128-70.7 0-128-57.3-128-128 0-70.7 57.3-128 128-128 70.7 0 128 57.3 128 128zm-91.6 81.5h-72.8c0 16.6 16.3 30 36.4 30 20.1 0 36.4-13.4 36.4-30zm23.8-9.9v-21.8h-120.4v21.8h120.4q0 0 0 0zm18.8-65.3l-27.4 5.4c0 0-5.9 1.4-14.3 3 7.4-8.8 11.8-20 11.8-31.9 0-17.8-4.3-27.3-11.5-39.7-4.4-7.7-10.9-23.7-5.2-36.5-12.8 10.2-16.3 39.6-17 59.8-2.3-9.7-1.9-25-4.8-34.2-7.7-24.2-16.5-34-9.5-45.4-7.8 0.5-15.6 14.2-15.6 26 0 11.3-3 29.9-10.4 40-0.5-21.9-7.9-35.9-14.8-36.5 7.1 18.1-12.6 40.5-12.6 66.2 0 11.7 4.6 23.1 12.3 32.1-8-1.4-13.5-2.7-13.5-2.7-10.6-2.4-25.6-5.7-25.5-5.4 2.8 7.9 5.7 15.7 18 30.7q0.6 0.7 1.2 1.3h119.5c15.3-15.8 19.3-32.2 19.3-32.2z"/>
</svg>