<svg version="1.2" xmlns="http://www.w3.org/2000/svg" viewBox="0 0 256 257" width="52" height="52">
	<title>rancher-icon-svgrepo-com-svg</title>
	<style>
		.s0 { fill: #0075a8 } 
	</style>
	<g id="Layer">
		<path id="Layer" class="s0" d="m158.1 68c1.6 0 3.1 4.5 3.1 9.9v2.5c0.2-0.1 0.5-0.1 0.9-0.1h54.5c5.3 0 9.8 4.5 9.8 10v51.2c0 5.3-4.5 9.8-9.8 9.8h-26.5c-5.4 0-9.9-4.5-9.9-9.8v-20.1c-2.4 1.8-3.9 4.6-3.9 7.8v16.7c0 5.4 4.4 9.9 9.8 9.9h17.3v26.5c0 3.3-2.7 6-6 6h-32.5c-3.4 0-6-2.7-6-6v-24.3c0-3.4-2.7-6-6.1-6h-81c-3.3 0-6 2.6-6 6v24.3c0 3.3-2.7 6-6 6h-32.5c-3.3 0-6-2.7-6-6v-70.1l-14.6 11.5c-0.7 0.5-1.6 0.4-2.1-0.3l-4.2-5c-0.5-0.5-0.5-1.3-0.1-1.8l21.5-32.9c1-2.1 3-3.5 5.5-3.5h114.1c3.8 0 6.6 3.3 5.9 7l-2.3 13.9c-0.6 3.8 2.2 7.1 5.9 7.1h23.1c2.9 0 5.3-2.1 5.8-4.9-1.2 0.5-2.9 0.8-4.6 0.8h-16.3c-5.4 0-9.1-4.4-8.2-9.7l2.8-16.7c0.9-5.3 2.9-9.7 4.6-9.7zm90.3 0c1.7 0 3.8 4.4 4.7 9.7l2.8 16.7c0.9 5.3-2.8 9.7-8.4 9.7h-17.2v-12h5.2c5.4 0 9.9-4.5 9.9-9.9v-4.3c0-5.4 1.4-9.9 3-9.9z"/>
	</g>
</svg>