<svg version="1.2" xmlns="http://www.w3.org/2000/svg" viewBox="0 0 74 72" width="52" height="52">
	<title>vault-svg</title>
	<style>
		.s0 { fill: #000000 } 
	</style>
	<path id="a" fill-rule="evenodd" class="s0" d="m36.8 72l-36.8-72h73.6zm-5.5-41c1.2 0 2.1-1 2.1-2.1 0-1.2-0.9-2.1-2.1-2.1-1.2 0-2.1 1-2.1 2.1 0 1.2 0.9 2.1 2.1 2.1zm6.3 0c1.2 0 2.1-1 2.1-2.1 0-1.2-0.9-2.1-2.1-2.1-1.2 0-2.1 1-2.1 2.1 0 1.2 0.9 2.1 2.1 2.1zm6.3 0c1.2 0 2.1-1 2.1-2.1 0-1.2-0.9-2.1-2.1-2.1-1.2 0-2.1 1-2.1 2.1 0 1.2 1 2.1 2.1 2.1zm-12.6-5.7c1.2 0 2.1-1 2.1-2.1 0-1.2-0.9-2.1-2.1-2.1-1.2 0-2.1 1-2.1 2.1 0 1.2 0.9 2.1 2.1 2.1zm6.3 0c1.2 0 2.1-1 2.1-2.1 0-1.2-0.9-2.1-2.1-2.1-1.2 0-2.1 1-2.1 2.1 0 1.2 0.9 2.1 2.1 2.1zm6.3 0c1.2 0 2.1-1 2.1-2.1 0-1.2-0.9-2.1-2.1-2.1-1.2 0-2.1 1-2.1 2.1 0 1.2 1 2.1 2.1 2.1zm-6.3-5.7c1.2 0 2.1-1 2.1-2.1 0-1.2-0.9-2.1-2.1-2.1-1.2 0-2.1 1-2.1 2.1 0 1.1 0.9 2.1 2.1 2.1zm6.3 0c1.2 0 2.1-1 2.1-2.1 0-1.2-0.9-2.1-2.1-2.1-1.2 0-2.1 1-2.1 2.1 0 1.1 1 2.1 2.1 2.1zm-12.6 0c1.2 0 2.1-1 2.1-2.1 0-1.2-0.9-2.1-2.1-2.1-1.2 0-2.1 1-2.1 2.1 0 1.1 0.9 2.1 2.1 2.1zm6.3 17.2c1.2 0 2.1-1 2.1-2.1 0-1.1-0.9-2.1-2.1-2.1-1.2 0-2.1 1-2.1 2.1 0 1.1 0.9 2.1 2.1 2.1z"/>
</svg>