<svg version="1.2" xmlns="http://www.w3.org/2000/svg" viewBox="0 0 64 64" width="12" height="10">
	<title>card-index-dividers-svgrepo-com-svg</title>
	<style>
		.s0 { fill: #89664c } 
		.s1 { fill: #aa7d5e } 
		.s2 { fill: #d3976e } 
		.s3 { fill: #f2bc97 } 
		.s4 { fill: #ffce31 } 
		.s5 { fill: #ffffff } 
	</style>
	<path id="Layer" class="s0" d="m63.7 26.6l-16 32.4v-34.3h15.7c0.7 0.1 0.8 0.9 0.3 1.9z"/>
	<path id="Layer" class="s1" d="m61.1 23.2l-13.4 35.8-2.6-37.7h15.7c0.6 0.1 0.8 0.9 0.3 1.9z"/>
	<path id="Layer" class="s2" d="m57.1 20.2l-9.4 38.8v-41.1h8.4c0.8 0 1.3 1 1 2.3z"/>
	<path id="Layer" class="s3" d="m53.1 15.3l-5.4 43.7-3.9-46h8.4c0.8 0 1.2 1 0.9 2.3z"/>
	<path id="Layer" class="s4" d="m47.7 13.6v45.4h-47.7v-51.4c0-1.4 0.8-2.6 1.9-2.6h20.1c1 0 1.8 1.2 1.8 2.6v3.4h22c1 0 1.9 1.1 1.9 2.6z"/>
	<g id="Layer">
		<path id="Layer" class="s5" d="m10.8 57.2c-1.4 0-2.5-1.1-2.5-2.5 0-1.4 1.1-2.5 2.5-2.5 1.4 0 2.5 1.1 2.5 2.5 0 1.4-1.1 2.5-2.5 2.5z"/>
		<path id="Layer" class="s5" d="m26.4 54.7c0 1.4-1.1 2.5-2.5 2.5-1.4 0-2.5-1.1-2.5-2.5 0-1.4 1.1-2.5 2.5-2.5 1.4 0 2.5 1.1 2.5 2.5z"/>
		<path id="Layer" class="s5" d="m36.9 57.2c-1.4 0-2.5-1.1-2.5-2.5 0-1.4 1.1-2.5 2.5-2.5 1.4 0 2.5 1.1 2.5 2.5 0 1.4-1.1 2.5-2.5 2.5z"/>
	</g>
</svg>