<svg version="1.2" xmlns="http://www.w3.org/2000/svg" viewBox="0 0 613 137" width="168" height="39">
	<title>Unir_2021_logo-svg</title>
	<style>
		.s0 { fill: #000000 } 
		.s1 { fill: #1868af } 
	</style>
	<path id="Layer" fill-rule="evenodd" class="s0" d="m235.1 40.4c13 0 19.6 0.3 25.1 2.2 13.9 4.8 15.8 14.8 15.8 21.5 0 8.4-3 17.2-14.3 20.5l16.7 28.8h10.1v11.9c-4 0.2-6.6 0.5-9.2 0.7q-4 0.3-6.4 0.3-4.9 0-7.4-1.5-2.4-1.5-4.4-5.2l-17.5-32h-9.5v18.8h-18.2v-53.1h-7.7v-12.9zm-165.8-0.3q6.2 0 8.4 2.3c1.5 1.6 2.2 4.2 2.2 7.8v43h8.1v11.7c0 0-9.8 1.4-15.7 1.4q-4.7 0-7.1-1.4-2.3-1.3-3.1-4.3c-2.9 2.2-10.3 7.1-19.3 7.1-5.9 0-12.3-1.7-17-6.3-1.8-1.7-4.9-6.5-4.9-16v-32.3h-8.1v-11.8q3.8-0.5 8.4-0.9 4.6-0.3 7.3-0.3 6.2 0 8.4 2.3 2.2 2.4 2.2 7.8v32.7c0 2.9 0.6 5.3 2.1 6.5 4 3.1 12.3 2 14.4 1.7q3.2-0.3 6.1-1v-37h-8.1v-11.8q3.8-0.5 8.4-0.9 4.6-0.3 7.3-0.3zm117.4 0c4.2 0 7 0.8 8.5 2.3q2.3 2.4 2.2 7.8v56.2h-18.2v-53.2h-8.6v-11.8q1.9-0.2 4.2-0.4c0 0 8.1-0.9 11.9-0.9zm-47.4-1.4c14.8 0 19.8 11.3 19.8 22.3v32.2h8v11.7c0 0-7 0.9-8.4 1.1q-2.1 0.1-4.1 0.2c-1.2 0.1-2.1 0.1-3 0.1h-0.3c-0.1 0-0.3 0-0.5 0q-0.5 0-1-0.1-1.9-0.1-3.3-0.4-0.1 0-0.2-0.1c-0.8-0.2-2.3-0.7-3.2-1.7-1.5-1.6-2.2-4.2-2.2-7.8v-32.7q0-4.6-2.1-6.6c-0.9-0.8-2-1.4-3.4-1.6-8.2-1.4-15.5 0.5-17.3 1v49.4h-18.2v-52.6h-9.1v-11.7c2.6-0.4 11.2-1.3 16.4-1.3q4.9 0 7.3 1.3 2.4 1.4 3.3 4.2c7.7-6.4 17.7-6.9 21.5-6.9zm104.9 14.3h-10v22.3h10.7c9.4 0 13-6.2 13-11.4 0-5-1.5-10.9-13.7-10.9zm-58.7-44.5c3.1 0 5.4 0.7 6.9 2q2.2 2 2.2 6.8v1.8q0 4.8-2.2 6.7c-1.5 1.3-3.8 1.9-6.9 1.9h-0.9c-3.1 0-5.5-0.6-6.9-1.9-1.5-1.3-2.2-3.5-2.2-6.7v-1.8c0-3.1 0.7-5.4 2.2-6.8 1.4-1.3 3.8-2 6.9-2z"/>
	<path id="Layer" fill-rule="evenodd" class="s1" d="m306.8 40.4h3.9v22.2h12.4v3.4h-16.3zm35.4 19.1h-10.9l-2.4 6.5h-3.9l10-25.6h3.5l10.1 25.6h-4zm-1.2-3.3l-4.2-11-4.1 11zm20.6 0.8v-16.6h3.7v16.8c0 3.6 2.5 5.7 6.1 5.7 3.7 0 6.2-2.1 6.2-5.7v-16.8h3.7v16.6c0 5.9-4 9.3-9.9 9.3-5.8 0-9.8-3.4-9.8-9.3zm25.5-16.6h4.2l12.4 19.7v-19.7h3.8v25.6h-4.2l-12.4-19.7v19.7h-3.8zm26.7 0h3.8v25.6h-3.8zm7.7 0h3.9l7.5 21 7.6-21h3.9l-9.6 25.6h-3.7zm26.8 0h16.4v3.4h-12.6v7.3h10.2v3.4h-10.2v8.2h13v3.3h-16.8zm39.7 19.1l0.6 6.5h-3.7l-0.5-6.2c-0.2-2.3-1.7-3.9-3.9-3.9h-6.4v10.1h-3.8v-25.6h10c5.1 0 8.3 3.1 8.3 7.7 0 2.8-1.5 4.7-3.8 5.8 1.9 1.1 3.1 3.1 3.2 5.6zm-13.9-6.9h6.1c3.3 0 4.6-2.2 4.6-4.5 0-2.3-1.3-4.4-4.6-4.4h-6.1zm19.1 5h3.7c0.3 3.3 2.5 5.4 6.1 5.4 3.2 0 5.6-1.2 5.6-4 0-6.2-14.6-2.5-14.6-11.9 0-4.1 3.6-6.9 8.8-6.9 5.2 0 8.8 3 9.1 7.7h-3.7c-0.2-2.6-2.3-4.4-5.4-4.4-3.1 0-5 1.4-5 3.6 0 6.2 14.6 2.1 14.6 11.8 0 4.7-3.9 7.5-9.4 7.5-5.8 0-9.5-3.5-9.8-8.8zm24.2-17.1h3.8v25.6h-3.8zm10.1 0h7.8c7.2 0 12.9 4.4 12.9 12.8 0 8.3-5.7 12.8-12.9 12.8h-7.8zm7.6 22.2c4.8 0 9.2-2.6 9.2-9.4 0-6.8-4.4-9.4-9.2-9.4h-3.8v18.8zm32.2-3.1h-10.9l-2.4 6.5h-4l10.1-25.6h3.5l10.1 25.6h-4zm-1.2-3.3l-4.2-11-4.2 11zm11.5-15.8h7.9c7.1 0 12.9 4.5 12.9 12.8 0 8.3-5.8 12.8-12.9 12.8h-7.9zm7.6 22.2c4.8 0 9.3-2.6 9.3-9.4 0-6.8-4.5-9.4-9.3-9.4h-3.8v18.8zm-278.4 17.8h16.5v3.4h-12.7v7.3h10.2v3.4h-10.2v8.1h13.1v3.4h-16.9zm22 0h4.3l12.3 19.7v-19.7h3.8v25.6h-4.2l-12.4-19.7v19.7h-3.8zm36.2 0h3.8v25.6h-3.8zm10.1 0h4.3l12.3 19.7v-19.7h3.8v25.6h-4.2l-12.4-19.6v19.6h-3.8zm32.5 3.4h-8v-3.4h19.8v3.4h-8v22.2h-3.8zm15.7-3.3h16.4v3.3h-12.6v7.4h10.2v3.4h-10.2v8.1h13v3.4h-16.8zm39.7 19l0.6 6.6h-3.7l-0.6-6.2c-0.1-2.3-1.6-3.9-3.8-3.9h-6.4v10.1h-3.8v-25.6h10c5.1 0 8.3 3.1 8.3 7.7 0 2.7-1.5 4.6-3.8 5.7 1.9 1.1 3.1 3.2 3.2 5.6zm-13.9-6.9h6.1c3.3 0 4.6-2.1 4.6-4.4 0-2.4-1.3-4.4-4.6-4.4h-6.1zm21.2-12.2h4.2l12.3 19.7v-19.7h3.8v25.6h-4.2l-12.3-19.6v19.6h-3.8zm26.6 0h16.5v3.4h-12.7v7.4h10.2v3.3h-10.2v8.2h13.1v3.3h-16.9zm27.8 3.4h-8v-3.4h19.9v3.4h-8v22.2h-3.9z"/>
</svg>